<svg xmlns="http://www.w3.org/2000/svg" viewBox="0 0 400 300" width="400" height="300" style="background-color:white; border:1px solid #ddd;"><rect x="40" y="180.0" width="45" height="70.0" fill="#fff9c4" stroke="black" stroke-width="1"/><text x="62" y="175.0" font-family="Arial" font-size="10" fill="black" text-anchor="middle">7</text><text x="62" y="265" font-family="Arial" font-size="8" fill="black" text-anchor="middle">11-13</text><rect x="85" y="190.0" width="45" height="60.0" fill="#fff9c4" stroke="black" stroke-width="1"/><text x="107" y="185.0" font-family="Arial" font-size="10" fill="black" text-anchor="middle">6</text><text x="107" y="265" font-family="Arial" font-size="8" fill="black" text-anchor="middle">13-15</text><rect x="130" y="160.0" width="45" height="90.0" fill="#fff9c4" stroke="black" stroke-width="1"/><text x="152" y="155.0" font-family="Arial" font-size="10" fill="black" text-anchor="middle">9</text><text x="152" y="265" font-family="Arial" font-size="8" fill="black" text-anchor="middle">15-17</text><rect x="175" y="120.0" width="45" height="130.0" fill="#fff9c4" stroke="black" stroke-width="1"/><text x="197" y="115.0" font-family="Arial" font-size="10" fill="black" text-anchor="middle">13</text><text x="197" y="265" font-family="Arial" font-size="8" fill="black" text-anchor="middle">17-19</text><rect x="220" y="50.0" width="45" height="200.0" fill="#bdbdbd" stroke="black" stroke-width="1"/><text x="242" y="45.0" font-family="Arial" font-size="10" fill="black" text-anchor="middle">f?</text><text x="242" y="265" font-family="Arial" font-size="8" fill="black" text-anchor="middle">19-21</text><rect x="265" y="200.0" width="45" height="50.0" fill="#fff9c4" stroke="black" stroke-width="1"/><text x="287" y="195.0" font-family="Arial" font-size="10" fill="black" text-anchor="middle">5</text><text x="287" y="265" font-family="Arial" font-size="8" fill="black" text-anchor="middle">21-23</text><rect x="310" y="210.0" width="45" height="40.0" fill="#fff9c4" stroke="black" stroke-width="1"/><text x="332" y="205.0" font-family="Arial" font-size="10" fill="black" text-anchor="middle">4</text><text x="332" y="265" font-family="Arial" font-size="8" fill="black" text-anchor="middle">23-25</text><line x1="30" y1="250" x2="360" y2="250" stroke="black" stroke-width="2" fill="none"/><text x="200" y="290" font-family="Arial" font-size="12" fill="black" text-anchor="middle">Pocket Allowance (Find f)</text></svg>