<?xml version="1.0" encoding="utf-8" standalone="no"?>
<!DOCTYPE svg PUBLIC "-//W3C//DTD SVG 1.1//EN"
  "http://www.w3.org/Graphics/SVG/1.1/DTD/svg11.dtd">
<svg xmlns:xlink="http://www.w3.org/1999/xlink" width="424.470312pt" height="423.034375pt" viewBox="0 0 424.470312 423.034375" xmlns="http://www.w3.org/2000/svg" version="1.1">
 <metadata>
  <rdf:RDF xmlns:dc="http://purl.org/dc/elements/1.1/" xmlns:cc="http://creativecommons.org/ns#" xmlns:rdf="http://www.w3.org/1999/02/22-rdf-syntax-ns#">
   <cc:Work>
    <dc:type rdf:resource="http://purl.org/dc/dcmitype/StillImage"/>
    <dc:date>2026-02-13T21:33:28.098255</dc:date>
    <dc:format>image/svg+xml</dc:format>
    <dc:creator>
     <cc:Agent>
      <dc:title>Matplotlib v3.10.8, https://matplotlib.org/</dc:title>
     </cc:Agent>
    </dc:creator>
   </cc:Work>
  </rdf:RDF>
 </metadata>
 <defs>
  <style type="text/css">*{stroke-linejoin: round; stroke-linecap: butt}</style>
 </defs>
 <g id="figure_1">
  <g id="patch_1">
   <path d="M 0 423.034375 
L 424.470313 423.034375 
L 424.470313 0 
L 0 0 
z
" style="fill: #ffffff"/>
  </g>
  <g id="axes_1">
   <g id="patch_2">
    <path d="M 42.620313 385.478125 
L 417.270312 385.478125 
L 417.270312 31.318125 
L 42.620313 31.318125 
z
" style="fill: #ffffff"/>
   </g>
   <g id="patch_3">
    <path d="M 108.305702 323.385138 
L 351.584923 323.385138 
L 254.273235 231.395528 
z
" clip-path="url(#pb50f826653)" style="fill: #ffff00; opacity: 0.3; stroke: #ffff00; stroke-linejoin: miter"/>
   </g>
   <g id="matplotlib.axis_1">
    <g id="xtick_1">
     <g id="line2d_1">
      <path d="M 59.649858 385.478125 
L 59.649858 31.318125 
" clip-path="url(#pb50f826653)" style="fill: none; stroke-dasharray: 2.96,1.28; stroke-dashoffset: 0; stroke: #b0b0b0; stroke-opacity: 0.7; stroke-width: 0.8"/>
     </g>
     <g id="line2d_2">
      <defs>
       <path id="m1c81568ca5" d="M 0 0 
L 0 3.5 
" style="stroke: #000000; stroke-width: 0.8"/>
      </defs>
      <g>
       <use xlink:href="#m1c81568ca5" x="59.649858" y="385.478125" style="stroke: #000000; stroke-width: 0.8"/>
      </g>
     </g>
     <g id="text_1">
      <!-- −2 -->
      <g transform="translate(52.278764 400.076562) scale(0.1 -0.1)">
       <defs>
        <path id="DejaVuSans-2212" d="M 678 2272 
L 4684 2272 
L 4684 1741 
L 678 1741 
L 678 2272 
z
" transform="scale(0.015625)"/>
        <path id="DejaVuSans-32" d="M 1228 531 
L 3431 531 
L 3431 0 
L 469 0 
L 469 531 
Q 828 903 1448 1529 
Q 2069 2156 2228 2338 
Q 2531 2678 2651 2914 
Q 2772 3150 2772 3378 
Q 2772 3750 2511 3984 
Q 2250 4219 1831 4219 
Q 1534 4219 1204 4116 
Q 875 4013 500 3803 
L 500 4441 
Q 881 4594 1212 4672 
Q 1544 4750 1819 4750 
Q 2544 4750 2975 4387 
Q 3406 4025 3406 3419 
Q 3406 3131 3298 2873 
Q 3191 2616 2906 2266 
Q 2828 2175 2409 1742 
Q 1991 1309 1228 531 
z
" transform="scale(0.015625)"/>
       </defs>
       <use xlink:href="#DejaVuSans-2212"/>
       <use xlink:href="#DejaVuSans-32" transform="translate(83.789062 0)"/>
      </g>
     </g>
    </g>
    <g id="xtick_2">
     <g id="line2d_3">
      <path d="M 108.305702 385.478125 
L 108.305702 31.318125 
" clip-path="url(#pb50f826653)" style="fill: none; stroke-dasharray: 2.96,1.28; stroke-dashoffset: 0; stroke: #b0b0b0; stroke-opacity: 0.7; stroke-width: 0.8"/>
     </g>
     <g id="line2d_4">
      <g>
       <use xlink:href="#m1c81568ca5" x="108.305702" y="385.478125" style="stroke: #000000; stroke-width: 0.8"/>
      </g>
     </g>
     <g id="text_2">
      <!-- −1 -->
      <g transform="translate(100.934608 400.076562) scale(0.1 -0.1)">
       <defs>
        <path id="DejaVuSans-31" d="M 794 531 
L 1825 531 
L 1825 4091 
L 703 3866 
L 703 4441 
L 1819 4666 
L 2450 4666 
L 2450 531 
L 3481 531 
L 3481 0 
L 794 0 
L 794 531 
z
" transform="scale(0.015625)"/>
       </defs>
       <use xlink:href="#DejaVuSans-2212"/>
       <use xlink:href="#DejaVuSans-31" transform="translate(83.789062 0)"/>
      </g>
     </g>
    </g>
    <g id="xtick_3">
     <g id="line2d_5">
      <path d="M 156.961546 385.478125 
L 156.961546 31.318125 
" clip-path="url(#pb50f826653)" style="fill: none; stroke-dasharray: 2.96,1.28; stroke-dashoffset: 0; stroke: #b0b0b0; stroke-opacity: 0.7; stroke-width: 0.8"/>
     </g>
     <g id="line2d_6">
      <g>
       <use xlink:href="#m1c81568ca5" x="156.961546" y="385.478125" style="stroke: #000000; stroke-width: 0.8"/>
      </g>
     </g>
     <g id="text_3">
      <!-- 0 -->
      <g transform="translate(153.780296 400.076562) scale(0.1 -0.1)">
       <defs>
        <path id="DejaVuSans-30" d="M 2034 4250 
Q 1547 4250 1301 3770 
Q 1056 3291 1056 2328 
Q 1056 1369 1301 889 
Q 1547 409 2034 409 
Q 2525 409 2770 889 
Q 3016 1369 3016 2328 
Q 3016 3291 2770 3770 
Q 2525 4250 2034 4250 
z
M 2034 4750 
Q 2819 4750 3233 4129 
Q 3647 3509 3647 2328 
Q 3647 1150 3233 529 
Q 2819 -91 2034 -91 
Q 1250 -91 836 529 
Q 422 1150 422 2328 
Q 422 3509 836 4129 
Q 1250 4750 2034 4750 
z
" transform="scale(0.015625)"/>
       </defs>
       <use xlink:href="#DejaVuSans-30"/>
      </g>
     </g>
    </g>
    <g id="xtick_4">
     <g id="line2d_7">
      <path d="M 205.61739 385.478125 
L 205.61739 31.318125 
" clip-path="url(#pb50f826653)" style="fill: none; stroke-dasharray: 2.96,1.28; stroke-dashoffset: 0; stroke: #b0b0b0; stroke-opacity: 0.7; stroke-width: 0.8"/>
     </g>
     <g id="line2d_8">
      <g>
       <use xlink:href="#m1c81568ca5" x="205.61739" y="385.478125" style="stroke: #000000; stroke-width: 0.8"/>
      </g>
     </g>
     <g id="text_4">
      <!-- 1 -->
      <g transform="translate(202.43614 400.076562) scale(0.1 -0.1)">
       <use xlink:href="#DejaVuSans-31"/>
      </g>
     </g>
    </g>
    <g id="xtick_5">
     <g id="line2d_9">
      <path d="M 254.273235 385.478125 
L 254.273235 31.318125 
" clip-path="url(#pb50f826653)" style="fill: none; stroke-dasharray: 2.96,1.28; stroke-dashoffset: 0; stroke: #b0b0b0; stroke-opacity: 0.7; stroke-width: 0.8"/>
     </g>
     <g id="line2d_10">
      <g>
       <use xlink:href="#m1c81568ca5" x="254.273235" y="385.478125" style="stroke: #000000; stroke-width: 0.8"/>
      </g>
     </g>
     <g id="text_5">
      <!-- 2 -->
      <g transform="translate(251.091985 400.076562) scale(0.1 -0.1)">
       <use xlink:href="#DejaVuSans-32"/>
      </g>
     </g>
    </g>
    <g id="xtick_6">
     <g id="line2d_11">
      <path d="M 302.929079 385.478125 
L 302.929079 31.318125 
" clip-path="url(#pb50f826653)" style="fill: none; stroke-dasharray: 2.96,1.28; stroke-dashoffset: 0; stroke: #b0b0b0; stroke-opacity: 0.7; stroke-width: 0.8"/>
     </g>
     <g id="line2d_12">
      <g>
       <use xlink:href="#m1c81568ca5" x="302.929079" y="385.478125" style="stroke: #000000; stroke-width: 0.8"/>
      </g>
     </g>
     <g id="text_6">
      <!-- 3 -->
      <g transform="translate(299.747829 400.076562) scale(0.1 -0.1)">
       <defs>
        <path id="DejaVuSans-33" d="M 2597 2516 
Q 3050 2419 3304 2112 
Q 3559 1806 3559 1356 
Q 3559 666 3084 287 
Q 2609 -91 1734 -91 
Q 1441 -91 1130 -33 
Q 819 25 488 141 
L 488 750 
Q 750 597 1062 519 
Q 1375 441 1716 441 
Q 2309 441 2620 675 
Q 2931 909 2931 1356 
Q 2931 1769 2642 2001 
Q 2353 2234 1838 2234 
L 1294 2234 
L 1294 2753 
L 1863 2753 
Q 2328 2753 2575 2939 
Q 2822 3125 2822 3475 
Q 2822 3834 2567 4026 
Q 2313 4219 1838 4219 
Q 1578 4219 1281 4162 
Q 984 4106 628 3988 
L 628 4550 
Q 988 4650 1302 4700 
Q 1616 4750 1894 4750 
Q 2613 4750 3031 4423 
Q 3450 4097 3450 3541 
Q 3450 3153 3228 2886 
Q 3006 2619 2597 2516 
z
" transform="scale(0.015625)"/>
       </defs>
       <use xlink:href="#DejaVuSans-33"/>
      </g>
     </g>
    </g>
    <g id="xtick_7">
     <g id="line2d_13">
      <path d="M 351.584923 385.478125 
L 351.584923 31.318125 
" clip-path="url(#pb50f826653)" style="fill: none; stroke-dasharray: 2.96,1.28; stroke-dashoffset: 0; stroke: #b0b0b0; stroke-opacity: 0.7; stroke-width: 0.8"/>
     </g>
     <g id="line2d_14">
      <g>
       <use xlink:href="#m1c81568ca5" x="351.584923" y="385.478125" style="stroke: #000000; stroke-width: 0.8"/>
      </g>
     </g>
     <g id="text_7">
      <!-- 4 -->
      <g transform="translate(348.403673 400.076562) scale(0.1 -0.1)">
       <defs>
        <path id="DejaVuSans-34" d="M 2419 4116 
L 825 1625 
L 2419 1625 
L 2419 4116 
z
M 2253 4666 
L 3047 4666 
L 3047 1625 
L 3713 1625 
L 3713 1100 
L 3047 1100 
L 3047 0 
L 2419 0 
L 2419 1100 
L 313 1100 
L 313 1709 
L 2253 4666 
z
" transform="scale(0.015625)"/>
       </defs>
       <use xlink:href="#DejaVuSans-34"/>
      </g>
     </g>
    </g>
    <g id="xtick_8">
     <g id="line2d_15">
      <path d="M 400.240767 385.478125 
L 400.240767 31.318125 
" clip-path="url(#pb50f826653)" style="fill: none; stroke-dasharray: 2.96,1.28; stroke-dashoffset: 0; stroke: #b0b0b0; stroke-opacity: 0.7; stroke-width: 0.8"/>
     </g>
     <g id="line2d_16">
      <g>
       <use xlink:href="#m1c81568ca5" x="400.240767" y="385.478125" style="stroke: #000000; stroke-width: 0.8"/>
      </g>
     </g>
     <g id="text_8">
      <!-- 5 -->
      <g transform="translate(397.059517 400.076562) scale(0.1 -0.1)">
       <defs>
        <path id="DejaVuSans-35" d="M 691 4666 
L 3169 4666 
L 3169 4134 
L 1269 4134 
L 1269 2991 
Q 1406 3038 1543 3061 
Q 1681 3084 1819 3084 
Q 2600 3084 3056 2656 
Q 3513 2228 3513 1497 
Q 3513 744 3044 326 
Q 2575 -91 1722 -91 
Q 1428 -91 1123 -41 
Q 819 9 494 109 
L 494 744 
Q 775 591 1075 516 
Q 1375 441 1709 441 
Q 2250 441 2565 725 
Q 2881 1009 2881 1497 
Q 2881 1984 2565 2268 
Q 2250 2553 1709 2553 
Q 1456 2553 1204 2497 
Q 953 2441 691 2322 
L 691 4666 
z
" transform="scale(0.015625)"/>
       </defs>
       <use xlink:href="#DejaVuSans-35"/>
      </g>
     </g>
    </g>
    <g id="text_9">
     <!-- x -->
     <g transform="translate(226.985938 413.754687) scale(0.1 -0.1)">
      <defs>
       <path id="DejaVuSans-78" d="M 3513 3500 
L 2247 1797 
L 3578 0 
L 2900 0 
L 1881 1375 
L 863 0 
L 184 0 
L 1544 1831 
L 300 3500 
L 978 3500 
L 1906 2253 
L 2834 3500 
L 3513 3500 
z
" transform="scale(0.015625)"/>
      </defs>
      <use xlink:href="#DejaVuSans-78"/>
     </g>
    </g>
   </g>
   <g id="matplotlib.axis_2">
    <g id="ytick_1">
     <g id="line2d_17">
      <path d="M 42.620313 384.711545 
L 417.270312 384.711545 
" clip-path="url(#pb50f826653)" style="fill: none; stroke-dasharray: 2.96,1.28; stroke-dashoffset: 0; stroke: #b0b0b0; stroke-opacity: 0.7; stroke-width: 0.8"/>
     </g>
     <g id="line2d_18">
      <defs>
       <path id="mc1d4e393f6" d="M 0 0 
L -3.5 0 
" style="stroke: #000000; stroke-width: 0.8"/>
      </defs>
      <g>
       <use xlink:href="#mc1d4e393f6" x="42.620313" y="384.711545" style="stroke: #000000; stroke-width: 0.8"/>
      </g>
     </g>
     <g id="text_10">
      <!-- −2 -->
      <g transform="translate(20.878125 388.510764) scale(0.1 -0.1)">
       <use xlink:href="#DejaVuSans-2212"/>
       <use xlink:href="#DejaVuSans-32" transform="translate(83.789062 0)"/>
      </g>
     </g>
    </g>
    <g id="ytick_2">
     <g id="line2d_19">
      <path d="M 42.620313 323.385138 
L 417.270312 323.385138 
" clip-path="url(#pb50f826653)" style="fill: none; stroke-dasharray: 2.96,1.28; stroke-dashoffset: 0; stroke: #b0b0b0; stroke-opacity: 0.7; stroke-width: 0.8"/>
     </g>
     <g id="line2d_20">
      <g>
       <use xlink:href="#mc1d4e393f6" x="42.620313" y="323.385138" style="stroke: #000000; stroke-width: 0.8"/>
      </g>
     </g>
     <g id="text_11">
      <!-- 0 -->
      <g transform="translate(29.257813 327.184357) scale(0.1 -0.1)">
       <use xlink:href="#DejaVuSans-30"/>
      </g>
     </g>
    </g>
    <g id="ytick_3">
     <g id="line2d_21">
      <path d="M 42.620313 262.058731 
L 417.270312 262.058731 
" clip-path="url(#pb50f826653)" style="fill: none; stroke-dasharray: 2.96,1.28; stroke-dashoffset: 0; stroke: #b0b0b0; stroke-opacity: 0.7; stroke-width: 0.8"/>
     </g>
     <g id="line2d_22">
      <g>
       <use xlink:href="#mc1d4e393f6" x="42.620313" y="262.058731" style="stroke: #000000; stroke-width: 0.8"/>
      </g>
     </g>
     <g id="text_12">
      <!-- 2 -->
      <g transform="translate(29.257813 265.85795) scale(0.1 -0.1)">
       <use xlink:href="#DejaVuSans-32"/>
      </g>
     </g>
    </g>
    <g id="ytick_4">
     <g id="line2d_23">
      <path d="M 42.620313 200.732324 
L 417.270312 200.732324 
" clip-path="url(#pb50f826653)" style="fill: none; stroke-dasharray: 2.96,1.28; stroke-dashoffset: 0; stroke: #b0b0b0; stroke-opacity: 0.7; stroke-width: 0.8"/>
     </g>
     <g id="line2d_24">
      <g>
       <use xlink:href="#mc1d4e393f6" x="42.620313" y="200.732324" style="stroke: #000000; stroke-width: 0.8"/>
      </g>
     </g>
     <g id="text_13">
      <!-- 4 -->
      <g transform="translate(29.257813 204.531543) scale(0.1 -0.1)">
       <use xlink:href="#DejaVuSans-34"/>
      </g>
     </g>
    </g>
    <g id="ytick_5">
     <g id="line2d_25">
      <path d="M 42.620313 139.405917 
L 417.270312 139.405917 
" clip-path="url(#pb50f826653)" style="fill: none; stroke-dasharray: 2.96,1.28; stroke-dashoffset: 0; stroke: #b0b0b0; stroke-opacity: 0.7; stroke-width: 0.8"/>
     </g>
     <g id="line2d_26">
      <g>
       <use xlink:href="#mc1d4e393f6" x="42.620313" y="139.405917" style="stroke: #000000; stroke-width: 0.8"/>
      </g>
     </g>
     <g id="text_14">
      <!-- 6 -->
      <g transform="translate(29.257813 143.205136) scale(0.1 -0.1)">
       <defs>
        <path id="DejaVuSans-36" d="M 2113 2584 
Q 1688 2584 1439 2293 
Q 1191 2003 1191 1497 
Q 1191 994 1439 701 
Q 1688 409 2113 409 
Q 2538 409 2786 701 
Q 3034 994 3034 1497 
Q 3034 2003 2786 2293 
Q 2538 2584 2113 2584 
z
M 3366 4563 
L 3366 3988 
Q 3128 4100 2886 4159 
Q 2644 4219 2406 4219 
Q 1781 4219 1451 3797 
Q 1122 3375 1075 2522 
Q 1259 2794 1537 2939 
Q 1816 3084 2150 3084 
Q 2853 3084 3261 2657 
Q 3669 2231 3669 1497 
Q 3669 778 3244 343 
Q 2819 -91 2113 -91 
Q 1303 -91 875 529 
Q 447 1150 447 2328 
Q 447 3434 972 4092 
Q 1497 4750 2381 4750 
Q 2619 4750 2861 4703 
Q 3103 4656 3366 4563 
z
" transform="scale(0.015625)"/>
       </defs>
       <use xlink:href="#DejaVuSans-36"/>
      </g>
     </g>
    </g>
    <g id="ytick_6">
     <g id="line2d_27">
      <path d="M 42.620313 78.07951 
L 417.270312 78.07951 
" clip-path="url(#pb50f826653)" style="fill: none; stroke-dasharray: 2.96,1.28; stroke-dashoffset: 0; stroke: #b0b0b0; stroke-opacity: 0.7; stroke-width: 0.8"/>
     </g>
     <g id="line2d_28">
      <g>
       <use xlink:href="#mc1d4e393f6" x="42.620313" y="78.07951" style="stroke: #000000; stroke-width: 0.8"/>
      </g>
     </g>
     <g id="text_15">
      <!-- 8 -->
      <g transform="translate(29.257813 81.878729) scale(0.1 -0.1)">
       <defs>
        <path id="DejaVuSans-38" d="M 2034 2216 
Q 1584 2216 1326 1975 
Q 1069 1734 1069 1313 
Q 1069 891 1326 650 
Q 1584 409 2034 409 
Q 2484 409 2743 651 
Q 3003 894 3003 1313 
Q 3003 1734 2745 1975 
Q 2488 2216 2034 2216 
z
M 1403 2484 
Q 997 2584 770 2862 
Q 544 3141 544 3541 
Q 544 4100 942 4425 
Q 1341 4750 2034 4750 
Q 2731 4750 3128 4425 
Q 3525 4100 3525 3541 
Q 3525 3141 3298 2862 
Q 3072 2584 2669 2484 
Q 3125 2378 3379 2068 
Q 3634 1759 3634 1313 
Q 3634 634 3220 271 
Q 2806 -91 2034 -91 
Q 1263 -91 848 271 
Q 434 634 434 1313 
Q 434 1759 690 2068 
Q 947 2378 1403 2484 
z
M 1172 3481 
Q 1172 3119 1398 2916 
Q 1625 2713 2034 2713 
Q 2441 2713 2670 2916 
Q 2900 3119 2900 3481 
Q 2900 3844 2670 4047 
Q 2441 4250 2034 4250 
Q 1625 4250 1398 4047 
Q 1172 3844 1172 3481 
z
" transform="scale(0.015625)"/>
       </defs>
       <use xlink:href="#DejaVuSans-38"/>
      </g>
     </g>
    </g>
    <g id="text_16">
     <!-- y -->
     <g transform="translate(14.798438 211.3575) rotate(-90) scale(0.1 -0.1)">
      <defs>
       <path id="DejaVuSans-79" d="M 2059 -325 
Q 1816 -950 1584 -1140 
Q 1353 -1331 966 -1331 
L 506 -1331 
L 506 -850 
L 844 -850 
Q 1081 -850 1212 -737 
Q 1344 -625 1503 -206 
L 1606 56 
L 191 3500 
L 800 3500 
L 1894 763 
L 2988 3500 
L 3597 3500 
L 2059 -325 
z
" transform="scale(0.015625)"/>
      </defs>
      <use xlink:href="#DejaVuSans-79"/>
     </g>
    </g>
   </g>
   <g id="line2d_29">
    <path d="M 42.620313 323.385138 
L 417.270312 323.385138 
" clip-path="url(#pb50f826653)" style="fill: none; stroke: #000000; stroke-linecap: square"/>
   </g>
   <g id="line2d_30">
    <path d="M 156.961546 385.478125 
L 156.961546 31.318125 
" clip-path="url(#pb50f826653)" style="fill: none; stroke: #000000; stroke-linecap: square"/>
   </g>
   <g id="line2d_31">
    <path d="M 59.649858 354.048341 
L 63.09017 351.880236 
L 66.530482 349.712131 
L 69.970795 347.544026 
L 73.411107 345.37592 
L 76.851419 343.207815 
L 80.291731 341.03971 
L 83.732043 338.871604 
L 87.172356 336.703499 
L 90.612668 334.535394 
L 94.05298 332.367288 
L 97.493292 330.199183 
L 100.933605 328.031078 
L 104.373917 325.862973 
L 107.814229 323.694867 
L 111.254541 321.526762 
L 114.694853 319.358657 
L 118.135166 317.190551 
L 121.575478 315.022446 
L 125.01579 312.854341 
L 128.456102 310.686236 
L 131.896414 308.51813 
L 135.336727 306.350025 
L 138.777039 304.18192 
L 142.217351 302.013814 
L 145.657663 299.845709 
L 149.097975 297.677604 
L 152.538288 295.509498 
L 155.9786 293.341393 
L 159.418912 291.173288 
L 162.859224 289.005183 
L 166.299537 286.837077 
L 169.739849 284.668972 
L 173.180161 282.500867 
L 176.620473 280.332761 
L 180.060785 278.164656 
L 183.501098 275.996551 
L 186.94141 273.828446 
L 190.381722 271.66034 
L 193.822034 269.492235 
L 197.262346 267.32413 
L 200.702659 265.156024 
L 204.142971 262.987919 
L 207.583283 260.819814 
L 211.023595 258.651708 
L 214.463908 256.483603 
L 217.90422 254.315498 
L 221.344532 252.147393 
L 224.784844 249.979287 
L 228.225156 247.811182 
L 231.665469 245.643077 
L 235.105781 243.474971 
L 238.546093 241.306866 
L 241.986405 239.138761 
L 245.426717 236.970655 
L 248.86703 234.80255 
L 252.307342 232.634445 
L 255.747654 230.46634 
L 259.187966 228.298234 
L 262.628279 226.130129 
L 266.068591 223.962024 
L 269.508903 221.793918 
L 272.949215 219.625813 
L 276.389527 217.457708 
L 279.82984 215.289603 
L 283.270152 213.121497 
L 286.710464 210.953392 
L 290.150776 208.785287 
L 293.591088 206.617181 
L 297.031401 204.449076 
L 300.471713 202.280971 
L 303.912025 200.112865 
L 307.352337 197.94476 
L 310.79265 195.776655 
L 314.232962 193.60855 
L 317.673274 191.440444 
L 321.113586 189.272339 
L 324.553898 187.104234 
L 327.994211 184.936128 
L 331.434523 182.768023 
L 334.874835 180.599918 
L 338.315147 178.431813 
L 341.755459 176.263707 
L 345.195772 174.095602 
L 348.636084 171.927497 
L 352.076396 169.759391 
L 355.516708 167.591286 
L 358.95702 165.423181 
L 362.397333 163.255075 
L 365.837645 161.08697 
L 369.277957 158.918865 
L 372.718269 156.75076 
L 376.158582 154.582654 
L 379.598894 152.414549 
L 383.039206 150.246444 
L 386.479518 148.078338 
L 389.91983 145.910233 
L 393.360143 143.742128 
L 396.800455 141.574023 
L 400.240767 139.405917 
" clip-path="url(#pb50f826653)" style="fill: none; stroke: #0000ff; stroke-width: 1.5; stroke-linecap: square"/>
   </g>
   <g id="line2d_32">
    <path d="M 59.649858 47.416307 
L 63.09017 50.668465 
L 66.530482 53.920623 
L 69.970795 57.172781 
L 73.411107 60.424939 
L 76.851419 63.677097 
L 80.291731 66.929254 
L 83.732043 70.181412 
L 87.172356 73.43357 
L 90.612668 76.685728 
L 94.05298 79.937886 
L 97.493292 83.190044 
L 100.933605 86.442202 
L 104.373917 89.69436 
L 107.814229 92.946518 
L 111.254541 96.198676 
L 114.694853 99.450834 
L 118.135166 102.702992 
L 121.575478 105.95515 
L 125.01579 109.207308 
L 128.456102 112.459466 
L 131.896414 115.711624 
L 135.336727 118.963782 
L 138.777039 122.21594 
L 142.217351 125.468097 
L 145.657663 128.720255 
L 149.097975 131.972413 
L 152.538288 135.224571 
L 155.9786 138.476729 
L 159.418912 141.728887 
L 162.859224 144.981045 
L 166.299537 148.233203 
L 169.739849 151.485361 
L 173.180161 154.737519 
L 176.620473 157.989677 
L 180.060785 161.241835 
L 183.501098 164.493993 
L 186.94141 167.746151 
L 190.381722 170.998309 
L 193.822034 174.250467 
L 197.262346 177.502625 
L 200.702659 180.754782 
L 204.142971 184.00694 
L 207.583283 187.259098 
L 211.023595 190.511256 
L 214.463908 193.763414 
L 217.90422 197.015572 
L 221.344532 200.26773 
L 224.784844 203.519888 
L 228.225156 206.772046 
L 231.665469 210.024204 
L 235.105781 213.276362 
L 238.546093 216.52852 
L 241.986405 219.780678 
L 245.426717 223.032836 
L 248.86703 226.284994 
L 252.307342 229.537152 
L 255.747654 232.78931 
L 259.187966 236.041468 
L 262.628279 239.293625 
L 266.068591 242.545783 
L 269.508903 245.797941 
L 272.949215 249.050099 
L 276.389527 252.302257 
L 279.82984 255.554415 
L 283.270152 258.806573 
L 286.710464 262.058731 
L 290.150776 265.310889 
L 293.591088 268.563047 
L 297.031401 271.815205 
L 300.471713 275.067363 
L 303.912025 278.319521 
L 307.352337 281.571679 
L 310.79265 284.823837 
L 314.232962 288.075995 
L 317.673274 291.328153 
L 321.113586 294.58031 
L 324.553898 297.832468 
L 327.994211 301.084626 
L 331.434523 304.336784 
L 334.874835 307.588942 
L 338.315147 310.8411 
L 341.755459 314.093258 
L 345.195772 317.345416 
L 348.636084 320.597574 
L 352.076396 323.849732 
L 355.516708 327.10189 
L 358.95702 330.354048 
L 362.397333 333.606206 
L 365.837645 336.858364 
L 369.277957 340.110522 
L 372.718269 343.36268 
L 376.158582 346.614838 
L 379.598894 349.866996 
L 383.039206 353.119153 
L 386.479518 356.371311 
L 389.91983 359.623469 
L 393.360143 362.875627 
L 396.800455 366.127785 
L 400.240767 369.379943 
" clip-path="url(#pb50f826653)" style="fill: none; stroke: #ff0000; stroke-width: 1.5; stroke-linecap: square"/>
   </g>
   <g id="patch_4">
    <path d="M 42.620313 385.478125 
L 42.620313 31.318125 
" style="fill: none; stroke: #000000; stroke-width: 0.8; stroke-linejoin: miter; stroke-linecap: square"/>
   </g>
   <g id="patch_5">
    <path d="M 417.270312 385.478125 
L 417.270312 31.318125 
" style="fill: none; stroke: #000000; stroke-width: 0.8; stroke-linejoin: miter; stroke-linecap: square"/>
   </g>
   <g id="patch_6">
    <path d="M 42.620312 385.478125 
L 417.270312 385.478125 
" style="fill: none; stroke: #000000; stroke-width: 0.8; stroke-linejoin: miter; stroke-linecap: square"/>
   </g>
   <g id="patch_7">
    <path d="M 42.620312 31.318125 
L 417.270312 31.318125 
" style="fill: none; stroke: #000000; stroke-width: 0.8; stroke-linejoin: miter; stroke-linecap: square"/>
   </g>
   <g id="text_17">
    <!-- (2, 3) -->
    <g transform="translate(259.273235 226.395528) scale(0.09 -0.09)">
     <defs>
      <path id="DejaVuSans-28" d="M 1984 4856 
Q 1566 4138 1362 3434 
Q 1159 2731 1159 2009 
Q 1159 1288 1364 580 
Q 1569 -128 1984 -844 
L 1484 -844 
Q 1016 -109 783 600 
Q 550 1309 550 2009 
Q 550 2706 781 3412 
Q 1013 4119 1484 4856 
L 1984 4856 
z
" transform="scale(0.015625)"/>
      <path id="DejaVuSans-2c" d="M 750 794 
L 1409 794 
L 1409 256 
L 897 -744 
L 494 -744 
L 750 256 
L 750 794 
z
" transform="scale(0.015625)"/>
      <path id="DejaVuSans-20" transform="scale(0.015625)"/>
      <path id="DejaVuSans-29" d="M 513 4856 
L 1013 4856 
Q 1481 4119 1714 3412 
Q 1947 2706 1947 2009 
Q 1947 1309 1714 600 
Q 1481 -109 1013 -844 
L 513 -844 
Q 928 -128 1133 580 
Q 1338 1288 1338 2009 
Q 1338 2731 1133 3434 
Q 928 4138 513 4856 
z
" transform="scale(0.015625)"/>
     </defs>
     <use xlink:href="#DejaVuSans-28"/>
     <use xlink:href="#DejaVuSans-32" transform="translate(39.013672 0)"/>
     <use xlink:href="#DejaVuSans-2c" transform="translate(102.636719 0)"/>
     <use xlink:href="#DejaVuSans-20" transform="translate(134.423828 0)"/>
     <use xlink:href="#DejaVuSans-33" transform="translate(166.210938 0)"/>
     <use xlink:href="#DejaVuSans-29" transform="translate(229.833984 0)"/>
    </g>
   </g>
   <g id="text_18">
    <!-- (-1, 0) -->
    <g transform="translate(113.305702 318.385138) scale(0.09 -0.09)">
     <defs>
      <path id="DejaVuSans-2d" d="M 313 2009 
L 1997 2009 
L 1997 1497 
L 313 1497 
L 313 2009 
z
" transform="scale(0.015625)"/>
     </defs>
     <use xlink:href="#DejaVuSans-28"/>
     <use xlink:href="#DejaVuSans-2d" transform="translate(39.013672 0)"/>
     <use xlink:href="#DejaVuSans-31" transform="translate(75.097656 0)"/>
     <use xlink:href="#DejaVuSans-2c" transform="translate(138.720703 0)"/>
     <use xlink:href="#DejaVuSans-20" transform="translate(170.507812 0)"/>
     <use xlink:href="#DejaVuSans-30" transform="translate(202.294922 0)"/>
     <use xlink:href="#DejaVuSans-29" transform="translate(265.917969 0)"/>
    </g>
   </g>
   <g id="text_19">
    <!-- (4, 0) -->
    <g transform="translate(356.584923 318.385138) scale(0.09 -0.09)">
     <use xlink:href="#DejaVuSans-28"/>
     <use xlink:href="#DejaVuSans-34" transform="translate(39.013672 0)"/>
     <use xlink:href="#DejaVuSans-2c" transform="translate(102.636719 0)"/>
     <use xlink:href="#DejaVuSans-20" transform="translate(134.423828 0)"/>
     <use xlink:href="#DejaVuSans-30" transform="translate(166.210938 0)"/>
     <use xlink:href="#DejaVuSans-29" transform="translate(229.833984 0)"/>
    </g>
   </g>
   <g id="text_20">
    <!-- (0, 1) -->
    <g transform="translate(161.961546 287.721935) scale(0.09 -0.09)">
     <use xlink:href="#DejaVuSans-28"/>
     <use xlink:href="#DejaVuSans-30" transform="translate(39.013672 0)"/>
     <use xlink:href="#DejaVuSans-2c" transform="translate(102.636719 0)"/>
     <use xlink:href="#DejaVuSans-20" transform="translate(134.423828 0)"/>
     <use xlink:href="#DejaVuSans-31" transform="translate(166.210938 0)"/>
     <use xlink:href="#DejaVuSans-29" transform="translate(229.833984 0)"/>
    </g>
   </g>
   <g id="text_21">
    <!-- (0, 6) -->
    <g transform="translate(161.961546 134.405917) scale(0.09 -0.09)">
     <use xlink:href="#DejaVuSans-28"/>
     <use xlink:href="#DejaVuSans-30" transform="translate(39.013672 0)"/>
     <use xlink:href="#DejaVuSans-2c" transform="translate(102.636719 0)"/>
     <use xlink:href="#DejaVuSans-20" transform="translate(134.423828 0)"/>
     <use xlink:href="#DejaVuSans-36" transform="translate(166.210938 0)"/>
     <use xlink:href="#DejaVuSans-29" transform="translate(229.833984 0)"/>
    </g>
   </g>
   <g id="text_22">
    <!-- Graph of Triangle -->
    <g transform="translate(178.38375 16.318125) scale(0.12 -0.12)">
     <defs>
      <path id="DejaVuSans-47" d="M 3809 666 
L 3809 1919 
L 2778 1919 
L 2778 2438 
L 4434 2438 
L 4434 434 
Q 4069 175 3628 42 
Q 3188 -91 2688 -91 
Q 1594 -91 976 548 
Q 359 1188 359 2328 
Q 359 3472 976 4111 
Q 1594 4750 2688 4750 
Q 3144 4750 3555 4637 
Q 3966 4525 4313 4306 
L 4313 3634 
Q 3963 3931 3569 4081 
Q 3175 4231 2741 4231 
Q 1884 4231 1454 3753 
Q 1025 3275 1025 2328 
Q 1025 1384 1454 906 
Q 1884 428 2741 428 
Q 3075 428 3337 486 
Q 3600 544 3809 666 
z
" transform="scale(0.015625)"/>
      <path id="DejaVuSans-72" d="M 2631 2963 
Q 2534 3019 2420 3045 
Q 2306 3072 2169 3072 
Q 1681 3072 1420 2755 
Q 1159 2438 1159 1844 
L 1159 0 
L 581 0 
L 581 3500 
L 1159 3500 
L 1159 2956 
Q 1341 3275 1631 3429 
Q 1922 3584 2338 3584 
Q 2397 3584 2469 3576 
Q 2541 3569 2628 3553 
L 2631 2963 
z
" transform="scale(0.015625)"/>
      <path id="DejaVuSans-61" d="M 2194 1759 
Q 1497 1759 1228 1600 
Q 959 1441 959 1056 
Q 959 750 1161 570 
Q 1363 391 1709 391 
Q 2188 391 2477 730 
Q 2766 1069 2766 1631 
L 2766 1759 
L 2194 1759 
z
M 3341 1997 
L 3341 0 
L 2766 0 
L 2766 531 
Q 2569 213 2275 61 
Q 1981 -91 1556 -91 
Q 1019 -91 701 211 
Q 384 513 384 1019 
Q 384 1609 779 1909 
Q 1175 2209 1959 2209 
L 2766 2209 
L 2766 2266 
Q 2766 2663 2505 2880 
Q 2244 3097 1772 3097 
Q 1472 3097 1187 3025 
Q 903 2953 641 2809 
L 641 3341 
Q 956 3463 1253 3523 
Q 1550 3584 1831 3584 
Q 2591 3584 2966 3190 
Q 3341 2797 3341 1997 
z
" transform="scale(0.015625)"/>
      <path id="DejaVuSans-70" d="M 1159 525 
L 1159 -1331 
L 581 -1331 
L 581 3500 
L 1159 3500 
L 1159 2969 
Q 1341 3281 1617 3432 
Q 1894 3584 2278 3584 
Q 2916 3584 3314 3078 
Q 3713 2572 3713 1747 
Q 3713 922 3314 415 
Q 2916 -91 2278 -91 
Q 1894 -91 1617 61 
Q 1341 213 1159 525 
z
M 3116 1747 
Q 3116 2381 2855 2742 
Q 2594 3103 2138 3103 
Q 1681 3103 1420 2742 
Q 1159 2381 1159 1747 
Q 1159 1113 1420 752 
Q 1681 391 2138 391 
Q 2594 391 2855 752 
Q 3116 1113 3116 1747 
z
" transform="scale(0.015625)"/>
      <path id="DejaVuSans-68" d="M 3513 2113 
L 3513 0 
L 2938 0 
L 2938 2094 
Q 2938 2591 2744 2837 
Q 2550 3084 2163 3084 
Q 1697 3084 1428 2787 
Q 1159 2491 1159 1978 
L 1159 0 
L 581 0 
L 581 4863 
L 1159 4863 
L 1159 2956 
Q 1366 3272 1645 3428 
Q 1925 3584 2291 3584 
Q 2894 3584 3203 3211 
Q 3513 2838 3513 2113 
z
" transform="scale(0.015625)"/>
      <path id="DejaVuSans-6f" d="M 1959 3097 
Q 1497 3097 1228 2736 
Q 959 2375 959 1747 
Q 959 1119 1226 758 
Q 1494 397 1959 397 
Q 2419 397 2687 759 
Q 2956 1122 2956 1747 
Q 2956 2369 2687 2733 
Q 2419 3097 1959 3097 
z
M 1959 3584 
Q 2709 3584 3137 3096 
Q 3566 2609 3566 1747 
Q 3566 888 3137 398 
Q 2709 -91 1959 -91 
Q 1206 -91 779 398 
Q 353 888 353 1747 
Q 353 2609 779 3096 
Q 1206 3584 1959 3584 
z
" transform="scale(0.015625)"/>
      <path id="DejaVuSans-66" d="M 2375 4863 
L 2375 4384 
L 1825 4384 
Q 1516 4384 1395 4259 
Q 1275 4134 1275 3809 
L 1275 3500 
L 2222 3500 
L 2222 3053 
L 1275 3053 
L 1275 0 
L 697 0 
L 697 3053 
L 147 3053 
L 147 3500 
L 697 3500 
L 697 3744 
Q 697 4328 969 4595 
Q 1241 4863 1831 4863 
L 2375 4863 
z
" transform="scale(0.015625)"/>
      <path id="DejaVuSans-54" d="M -19 4666 
L 3928 4666 
L 3928 4134 
L 2272 4134 
L 2272 0 
L 1638 0 
L 1638 4134 
L -19 4134 
L -19 4666 
z
" transform="scale(0.015625)"/>
      <path id="DejaVuSans-69" d="M 603 3500 
L 1178 3500 
L 1178 0 
L 603 0 
L 603 3500 
z
M 603 4863 
L 1178 4863 
L 1178 4134 
L 603 4134 
L 603 4863 
z
" transform="scale(0.015625)"/>
      <path id="DejaVuSans-6e" d="M 3513 2113 
L 3513 0 
L 2938 0 
L 2938 2094 
Q 2938 2591 2744 2837 
Q 2550 3084 2163 3084 
Q 1697 3084 1428 2787 
Q 1159 2491 1159 1978 
L 1159 0 
L 581 0 
L 581 3500 
L 1159 3500 
L 1159 2956 
Q 1366 3272 1645 3428 
Q 1925 3584 2291 3584 
Q 2894 3584 3203 3211 
Q 3513 2838 3513 2113 
z
" transform="scale(0.015625)"/>
      <path id="DejaVuSans-67" d="M 2906 1791 
Q 2906 2416 2648 2759 
Q 2391 3103 1925 3103 
Q 1463 3103 1205 2759 
Q 947 2416 947 1791 
Q 947 1169 1205 825 
Q 1463 481 1925 481 
Q 2391 481 2648 825 
Q 2906 1169 2906 1791 
z
M 3481 434 
Q 3481 -459 3084 -895 
Q 2688 -1331 1869 -1331 
Q 1566 -1331 1297 -1286 
Q 1028 -1241 775 -1147 
L 775 -588 
Q 1028 -725 1275 -790 
Q 1522 -856 1778 -856 
Q 2344 -856 2625 -561 
Q 2906 -266 2906 331 
L 2906 616 
Q 2728 306 2450 153 
Q 2172 0 1784 0 
Q 1141 0 747 490 
Q 353 981 353 1791 
Q 353 2603 747 3093 
Q 1141 3584 1784 3584 
Q 2172 3584 2450 3431 
Q 2728 3278 2906 2969 
L 2906 3500 
L 3481 3500 
L 3481 434 
z
" transform="scale(0.015625)"/>
      <path id="DejaVuSans-6c" d="M 603 4863 
L 1178 4863 
L 1178 0 
L 603 0 
L 603 4863 
z
" transform="scale(0.015625)"/>
      <path id="DejaVuSans-65" d="M 3597 1894 
L 3597 1613 
L 953 1613 
Q 991 1019 1311 708 
Q 1631 397 2203 397 
Q 2534 397 2845 478 
Q 3156 559 3463 722 
L 3463 178 
Q 3153 47 2828 -22 
Q 2503 -91 2169 -91 
Q 1331 -91 842 396 
Q 353 884 353 1716 
Q 353 2575 817 3079 
Q 1281 3584 2069 3584 
Q 2775 3584 3186 3129 
Q 3597 2675 3597 1894 
z
M 3022 2063 
Q 3016 2534 2758 2815 
Q 2500 3097 2075 3097 
Q 1594 3097 1305 2825 
Q 1016 2553 972 2059 
L 3022 2063 
z
" transform="scale(0.015625)"/>
     </defs>
     <use xlink:href="#DejaVuSans-47"/>
     <use xlink:href="#DejaVuSans-72" transform="translate(77.490234 0)"/>
     <use xlink:href="#DejaVuSans-61" transform="translate(118.603516 0)"/>
     <use xlink:href="#DejaVuSans-70" transform="translate(179.882812 0)"/>
     <use xlink:href="#DejaVuSans-68" transform="translate(243.359375 0)"/>
     <use xlink:href="#DejaVuSans-20" transform="translate(306.738281 0)"/>
     <use xlink:href="#DejaVuSans-6f" transform="translate(338.525391 0)"/>
     <use xlink:href="#DejaVuSans-66" transform="translate(399.707031 0)"/>
     <use xlink:href="#DejaVuSans-20" transform="translate(434.912109 0)"/>
     <use xlink:href="#DejaVuSans-54" transform="translate(466.699219 0)"/>
     <use xlink:href="#DejaVuSans-72" transform="translate(513.033203 0)"/>
     <use xlink:href="#DejaVuSans-69" transform="translate(554.146484 0)"/>
     <use xlink:href="#DejaVuSans-61" transform="translate(581.929688 0)"/>
     <use xlink:href="#DejaVuSans-6e" transform="translate(643.208984 0)"/>
     <use xlink:href="#DejaVuSans-67" transform="translate(706.587891 0)"/>
     <use xlink:href="#DejaVuSans-6c" transform="translate(770.064453 0)"/>
     <use xlink:href="#DejaVuSans-65" transform="translate(797.847656 0)"/>
    </g>
   </g>
   <g id="PathCollection_1">
    <defs>
     <path id="m2936c39d4a" d="M 0 2.738613 
C 0.726289 2.738613 1.422928 2.450055 1.936492 1.936492 
C 2.450055 1.422928 2.738613 0.726289 2.738613 0 
C 2.738613 -0.726289 2.450055 -1.422928 1.936492 -1.936492 
C 1.422928 -2.450055 0.726289 -2.738613 0 -2.738613 
C -0.726289 -2.738613 -1.422928 -2.450055 -1.936492 -1.936492 
C -2.450055 -1.422928 -2.738613 -0.726289 -2.738613 0 
C -2.738613 0.726289 -2.450055 1.422928 -1.936492 1.936492 
C -1.422928 2.450055 -0.726289 2.738613 0 2.738613 
z
" style="stroke: #000000"/>
    </defs>
    <g clip-path="url(#pb50f826653)">
     <use xlink:href="#m2936c39d4a" x="254.273235" y="231.395528" style="stroke: #000000"/>
    </g>
   </g>
   <g id="PathCollection_2">
    <g clip-path="url(#pb50f826653)">
     <use xlink:href="#m2936c39d4a" x="108.305702" y="323.385138" style="stroke: #000000"/>
    </g>
   </g>
   <g id="PathCollection_3">
    <g clip-path="url(#pb50f826653)">
     <use xlink:href="#m2936c39d4a" x="351.584923" y="323.385138" style="stroke: #000000"/>
    </g>
   </g>
   <g id="PathCollection_4">
    <g clip-path="url(#pb50f826653)">
     <use xlink:href="#m2936c39d4a" x="156.961546" y="292.721935" style="stroke: #000000"/>
    </g>
   </g>
   <g id="PathCollection_5">
    <g clip-path="url(#pb50f826653)">
     <use xlink:href="#m2936c39d4a" x="156.961546" y="139.405917" style="stroke: #000000"/>
    </g>
   </g>
   <g id="legend_1">
    <g id="patch_8">
     <path d="M 295.184375 68.674375 
L 410.270312 68.674375 
Q 412.270312 68.674375 412.270312 66.674375 
L 412.270312 38.318125 
Q 412.270312 36.318125 410.270312 36.318125 
L 295.184375 36.318125 
Q 293.184375 36.318125 293.184375 38.318125 
L 293.184375 66.674375 
Q 293.184375 68.674375 295.184375 68.674375 
z
" style="fill: #ffffff; opacity: 0.8; stroke: #cccccc; stroke-linejoin: miter"/>
    </g>
    <g id="line2d_33">
     <path d="M 297.184375 44.416562 
L 307.184375 44.416562 
L 317.184375 44.416562 
" style="fill: none; stroke: #0000ff; stroke-width: 1.5; stroke-linecap: square"/>
    </g>
    <g id="text_23">
     <!-- x - y + 1 = 0 -->
     <g transform="translate(325.184375 47.916562) scale(0.1 -0.1)">
      <defs>
       <path id="DejaVuSans-2b" d="M 2944 4013 
L 2944 2272 
L 4684 2272 
L 4684 1741 
L 2944 1741 
L 2944 0 
L 2419 0 
L 2419 1741 
L 678 1741 
L 678 2272 
L 2419 2272 
L 2419 4013 
L 2944 4013 
z
" transform="scale(0.015625)"/>
       <path id="DejaVuSans-3d" d="M 678 2906 
L 4684 2906 
L 4684 2381 
L 678 2381 
L 678 2906 
z
M 678 1631 
L 4684 1631 
L 4684 1100 
L 678 1100 
L 678 1631 
z
" transform="scale(0.015625)"/>
      </defs>
      <use xlink:href="#DejaVuSans-78"/>
      <use xlink:href="#DejaVuSans-20" transform="translate(59.179688 0)"/>
      <use xlink:href="#DejaVuSans-2d" transform="translate(90.966797 0)"/>
      <use xlink:href="#DejaVuSans-20" transform="translate(127.050781 0)"/>
      <use xlink:href="#DejaVuSans-79" transform="translate(158.837891 0)"/>
      <use xlink:href="#DejaVuSans-20" transform="translate(218.017578 0)"/>
      <use xlink:href="#DejaVuSans-2b" transform="translate(249.804688 0)"/>
      <use xlink:href="#DejaVuSans-20" transform="translate(333.59375 0)"/>
      <use xlink:href="#DejaVuSans-31" transform="translate(365.380859 0)"/>
      <use xlink:href="#DejaVuSans-20" transform="translate(429.003906 0)"/>
      <use xlink:href="#DejaVuSans-3d" transform="translate(460.791016 0)"/>
      <use xlink:href="#DejaVuSans-20" transform="translate(544.580078 0)"/>
      <use xlink:href="#DejaVuSans-30" transform="translate(576.367188 0)"/>
     </g>
    </g>
    <g id="line2d_34">
     <path d="M 297.184375 59.094687 
L 307.184375 59.094687 
L 317.184375 59.094687 
" style="fill: none; stroke: #ff0000; stroke-width: 1.5; stroke-linecap: square"/>
    </g>
    <g id="text_24">
     <!-- 3x + 2y - 12 = 0 -->
     <g transform="translate(325.184375 62.594687) scale(0.1 -0.1)">
      <use xlink:href="#DejaVuSans-33"/>
      <use xlink:href="#DejaVuSans-78" transform="translate(63.623047 0)"/>
      <use xlink:href="#DejaVuSans-20" transform="translate(122.802734 0)"/>
      <use xlink:href="#DejaVuSans-2b" transform="translate(154.589844 0)"/>
      <use xlink:href="#DejaVuSans-20" transform="translate(238.378906 0)"/>
      <use xlink:href="#DejaVuSans-32" transform="translate(270.166016 0)"/>
      <use xlink:href="#DejaVuSans-79" transform="translate(333.789062 0)"/>
      <use xlink:href="#DejaVuSans-20" transform="translate(392.96875 0)"/>
      <use xlink:href="#DejaVuSans-2d" transform="translate(424.755859 0)"/>
      <use xlink:href="#DejaVuSans-20" transform="translate(460.839844 0)"/>
      <use xlink:href="#DejaVuSans-31" transform="translate(492.626953 0)"/>
      <use xlink:href="#DejaVuSans-32" transform="translate(556.25 0)"/>
      <use xlink:href="#DejaVuSans-20" transform="translate(619.873047 0)"/>
      <use xlink:href="#DejaVuSans-3d" transform="translate(651.660156 0)"/>
      <use xlink:href="#DejaVuSans-20" transform="translate(735.449219 0)"/>
      <use xlink:href="#DejaVuSans-30" transform="translate(767.236328 0)"/>
     </g>
    </g>
   </g>
  </g>
 </g>
 <defs>
  <clipPath id="pb50f826653">
   <rect x="42.620313" y="31.318125" width="374.65" height="354.16"/>
  </clipPath>
 </defs>
</svg>
