<?xml version="1.0" encoding="utf-8" standalone="no"?>
<!DOCTYPE svg PUBLIC "-//W3C//DTD SVG 1.1//EN"
  "http://www.w3.org/Graphics/SVG/1.1/DTD/svg11.dtd">
<svg xmlns:xlink="http://www.w3.org/1999/xlink" width="424.495625pt" height="423.034375pt" viewBox="0 0 424.495625 423.034375" xmlns="http://www.w3.org/2000/svg" version="1.1">
 <metadata>
  <rdf:RDF xmlns:dc="http://purl.org/dc/elements/1.1/" xmlns:cc="http://creativecommons.org/ns#" xmlns:rdf="http://www.w3.org/1999/02/22-rdf-syntax-ns#">
   <cc:Work>
    <dc:type rdf:resource="http://purl.org/dc/dcmitype/StillImage"/>
    <dc:date>2026-02-13T21:33:24.832274</dc:date>
    <dc:format>image/svg+xml</dc:format>
    <dc:creator>
     <cc:Agent>
      <dc:title>Matplotlib v3.10.8, https://matplotlib.org/</dc:title>
     </cc:Agent>
    </dc:creator>
   </cc:Work>
  </rdf:RDF>
 </metadata>
 <defs>
  <style type="text/css">*{stroke-linejoin: round; stroke-linecap: butt}</style>
 </defs>
 <g id="figure_1">
  <g id="patch_1">
   <path d="M 0 423.034375 
L 424.495625 423.034375 
L 424.495625 0 
L 0 0 
z
" style="fill: #ffffff"/>
  </g>
  <g id="axes_1">
   <g id="patch_2">
    <path d="M 46.965625 385.478125 
L 417.295625 385.478125 
L 417.295625 31.318125 
L 46.965625 31.318125 
z
" style="fill: #ffffff"/>
   </g>
   <g id="matplotlib.axis_1">
    <g id="xtick_1">
     <g id="line2d_1">
      <path d="M 63.798807 385.478125 
L 63.798807 31.318125 
" clip-path="url(#p0abc9c29ed)" style="fill: none; stroke-dasharray: 2.96,1.28; stroke-dashoffset: 0; stroke: #b0b0b0; stroke-opacity: 0.7; stroke-width: 0.8"/>
     </g>
     <g id="line2d_2">
      <defs>
       <path id="m7d088291ac" d="M 0 0 
L 0 3.5 
" style="stroke: #000000; stroke-width: 0.8"/>
      </defs>
      <g>
       <use xlink:href="#m7d088291ac" x="63.798807" y="385.478125" style="stroke: #000000; stroke-width: 0.8"/>
      </g>
     </g>
     <g id="text_1">
      <!-- 0 -->
      <g transform="translate(60.617557 400.076562) scale(0.1 -0.1)">
       <defs>
        <path id="DejaVuSans-30" d="M 2034 4250 
Q 1547 4250 1301 3770 
Q 1056 3291 1056 2328 
Q 1056 1369 1301 889 
Q 1547 409 2034 409 
Q 2525 409 2770 889 
Q 3016 1369 3016 2328 
Q 3016 3291 2770 3770 
Q 2525 4250 2034 4250 
z
M 2034 4750 
Q 2819 4750 3233 4129 
Q 3647 3509 3647 2328 
Q 3647 1150 3233 529 
Q 2819 -91 2034 -91 
Q 1250 -91 836 529 
Q 422 1150 422 2328 
Q 422 3509 836 4129 
Q 1250 4750 2034 4750 
z
" transform="scale(0.015625)"/>
       </defs>
       <use xlink:href="#DejaVuSans-30"/>
      </g>
     </g>
    </g>
    <g id="xtick_2">
     <g id="line2d_3">
      <path d="M 111.893612 385.478125 
L 111.893612 31.318125 
" clip-path="url(#p0abc9c29ed)" style="fill: none; stroke-dasharray: 2.96,1.28; stroke-dashoffset: 0; stroke: #b0b0b0; stroke-opacity: 0.7; stroke-width: 0.8"/>
     </g>
     <g id="line2d_4">
      <g>
       <use xlink:href="#m7d088291ac" x="111.893612" y="385.478125" style="stroke: #000000; stroke-width: 0.8"/>
      </g>
     </g>
     <g id="text_2">
      <!-- 200 -->
      <g transform="translate(102.349862 400.076562) scale(0.1 -0.1)">
       <defs>
        <path id="DejaVuSans-32" d="M 1228 531 
L 3431 531 
L 3431 0 
L 469 0 
L 469 531 
Q 828 903 1448 1529 
Q 2069 2156 2228 2338 
Q 2531 2678 2651 2914 
Q 2772 3150 2772 3378 
Q 2772 3750 2511 3984 
Q 2250 4219 1831 4219 
Q 1534 4219 1204 4116 
Q 875 4013 500 3803 
L 500 4441 
Q 881 4594 1212 4672 
Q 1544 4750 1819 4750 
Q 2544 4750 2975 4387 
Q 3406 4025 3406 3419 
Q 3406 3131 3298 2873 
Q 3191 2616 2906 2266 
Q 2828 2175 2409 1742 
Q 1991 1309 1228 531 
z
" transform="scale(0.015625)"/>
       </defs>
       <use xlink:href="#DejaVuSans-32"/>
       <use xlink:href="#DejaVuSans-30" transform="translate(63.623047 0)"/>
       <use xlink:href="#DejaVuSans-30" transform="translate(127.246094 0)"/>
      </g>
     </g>
    </g>
    <g id="xtick_3">
     <g id="line2d_5">
      <path d="M 159.988417 385.478125 
L 159.988417 31.318125 
" clip-path="url(#p0abc9c29ed)" style="fill: none; stroke-dasharray: 2.96,1.28; stroke-dashoffset: 0; stroke: #b0b0b0; stroke-opacity: 0.7; stroke-width: 0.8"/>
     </g>
     <g id="line2d_6">
      <g>
       <use xlink:href="#m7d088291ac" x="159.988417" y="385.478125" style="stroke: #000000; stroke-width: 0.8"/>
      </g>
     </g>
     <g id="text_3">
      <!-- 400 -->
      <g transform="translate(150.444667 400.076562) scale(0.1 -0.1)">
       <defs>
        <path id="DejaVuSans-34" d="M 2419 4116 
L 825 1625 
L 2419 1625 
L 2419 4116 
z
M 2253 4666 
L 3047 4666 
L 3047 1625 
L 3713 1625 
L 3713 1100 
L 3047 1100 
L 3047 0 
L 2419 0 
L 2419 1100 
L 313 1100 
L 313 1709 
L 2253 4666 
z
" transform="scale(0.015625)"/>
       </defs>
       <use xlink:href="#DejaVuSans-34"/>
       <use xlink:href="#DejaVuSans-30" transform="translate(63.623047 0)"/>
       <use xlink:href="#DejaVuSans-30" transform="translate(127.246094 0)"/>
      </g>
     </g>
    </g>
    <g id="xtick_4">
     <g id="line2d_7">
      <path d="M 208.083222 385.478125 
L 208.083222 31.318125 
" clip-path="url(#p0abc9c29ed)" style="fill: none; stroke-dasharray: 2.96,1.28; stroke-dashoffset: 0; stroke: #b0b0b0; stroke-opacity: 0.7; stroke-width: 0.8"/>
     </g>
     <g id="line2d_8">
      <g>
       <use xlink:href="#m7d088291ac" x="208.083222" y="385.478125" style="stroke: #000000; stroke-width: 0.8"/>
      </g>
     </g>
     <g id="text_4">
      <!-- 600 -->
      <g transform="translate(198.539472 400.076562) scale(0.1 -0.1)">
       <defs>
        <path id="DejaVuSans-36" d="M 2113 2584 
Q 1688 2584 1439 2293 
Q 1191 2003 1191 1497 
Q 1191 994 1439 701 
Q 1688 409 2113 409 
Q 2538 409 2786 701 
Q 3034 994 3034 1497 
Q 3034 2003 2786 2293 
Q 2538 2584 2113 2584 
z
M 3366 4563 
L 3366 3988 
Q 3128 4100 2886 4159 
Q 2644 4219 2406 4219 
Q 1781 4219 1451 3797 
Q 1122 3375 1075 2522 
Q 1259 2794 1537 2939 
Q 1816 3084 2150 3084 
Q 2853 3084 3261 2657 
Q 3669 2231 3669 1497 
Q 3669 778 3244 343 
Q 2819 -91 2113 -91 
Q 1303 -91 875 529 
Q 447 1150 447 2328 
Q 447 3434 972 4092 
Q 1497 4750 2381 4750 
Q 2619 4750 2861 4703 
Q 3103 4656 3366 4563 
z
" transform="scale(0.015625)"/>
       </defs>
       <use xlink:href="#DejaVuSans-36"/>
       <use xlink:href="#DejaVuSans-30" transform="translate(63.623047 0)"/>
       <use xlink:href="#DejaVuSans-30" transform="translate(127.246094 0)"/>
      </g>
     </g>
    </g>
    <g id="xtick_5">
     <g id="line2d_9">
      <path d="M 256.178028 385.478125 
L 256.178028 31.318125 
" clip-path="url(#p0abc9c29ed)" style="fill: none; stroke-dasharray: 2.96,1.28; stroke-dashoffset: 0; stroke: #b0b0b0; stroke-opacity: 0.7; stroke-width: 0.8"/>
     </g>
     <g id="line2d_10">
      <g>
       <use xlink:href="#m7d088291ac" x="256.178028" y="385.478125" style="stroke: #000000; stroke-width: 0.8"/>
      </g>
     </g>
     <g id="text_5">
      <!-- 800 -->
      <g transform="translate(246.634278 400.076562) scale(0.1 -0.1)">
       <defs>
        <path id="DejaVuSans-38" d="M 2034 2216 
Q 1584 2216 1326 1975 
Q 1069 1734 1069 1313 
Q 1069 891 1326 650 
Q 1584 409 2034 409 
Q 2484 409 2743 651 
Q 3003 894 3003 1313 
Q 3003 1734 2745 1975 
Q 2488 2216 2034 2216 
z
M 1403 2484 
Q 997 2584 770 2862 
Q 544 3141 544 3541 
Q 544 4100 942 4425 
Q 1341 4750 2034 4750 
Q 2731 4750 3128 4425 
Q 3525 4100 3525 3541 
Q 3525 3141 3298 2862 
Q 3072 2584 2669 2484 
Q 3125 2378 3379 2068 
Q 3634 1759 3634 1313 
Q 3634 634 3220 271 
Q 2806 -91 2034 -91 
Q 1263 -91 848 271 
Q 434 634 434 1313 
Q 434 1759 690 2068 
Q 947 2378 1403 2484 
z
M 1172 3481 
Q 1172 3119 1398 2916 
Q 1625 2713 2034 2713 
Q 2441 2713 2670 2916 
Q 2900 3119 2900 3481 
Q 2900 3844 2670 4047 
Q 2441 4250 2034 4250 
Q 1625 4250 1398 4047 
Q 1172 3844 1172 3481 
z
" transform="scale(0.015625)"/>
       </defs>
       <use xlink:href="#DejaVuSans-38"/>
       <use xlink:href="#DejaVuSans-30" transform="translate(63.623047 0)"/>
       <use xlink:href="#DejaVuSans-30" transform="translate(127.246094 0)"/>
      </g>
     </g>
    </g>
    <g id="xtick_6">
     <g id="line2d_11">
      <path d="M 304.272833 385.478125 
L 304.272833 31.318125 
" clip-path="url(#p0abc9c29ed)" style="fill: none; stroke-dasharray: 2.96,1.28; stroke-dashoffset: 0; stroke: #b0b0b0; stroke-opacity: 0.7; stroke-width: 0.8"/>
     </g>
     <g id="line2d_12">
      <g>
       <use xlink:href="#m7d088291ac" x="304.272833" y="385.478125" style="stroke: #000000; stroke-width: 0.8"/>
      </g>
     </g>
     <g id="text_6">
      <!-- 1000 -->
      <g transform="translate(291.547833 400.076562) scale(0.1 -0.1)">
       <defs>
        <path id="DejaVuSans-31" d="M 794 531 
L 1825 531 
L 1825 4091 
L 703 3866 
L 703 4441 
L 1819 4666 
L 2450 4666 
L 2450 531 
L 3481 531 
L 3481 0 
L 794 0 
L 794 531 
z
" transform="scale(0.015625)"/>
       </defs>
       <use xlink:href="#DejaVuSans-31"/>
       <use xlink:href="#DejaVuSans-30" transform="translate(63.623047 0)"/>
       <use xlink:href="#DejaVuSans-30" transform="translate(127.246094 0)"/>
       <use xlink:href="#DejaVuSans-30" transform="translate(190.869141 0)"/>
      </g>
     </g>
    </g>
    <g id="xtick_7">
     <g id="line2d_13">
      <path d="M 352.367638 385.478125 
L 352.367638 31.318125 
" clip-path="url(#p0abc9c29ed)" style="fill: none; stroke-dasharray: 2.96,1.28; stroke-dashoffset: 0; stroke: #b0b0b0; stroke-opacity: 0.7; stroke-width: 0.8"/>
     </g>
     <g id="line2d_14">
      <g>
       <use xlink:href="#m7d088291ac" x="352.367638" y="385.478125" style="stroke: #000000; stroke-width: 0.8"/>
      </g>
     </g>
     <g id="text_7">
      <!-- 1200 -->
      <g transform="translate(339.642638 400.076562) scale(0.1 -0.1)">
       <use xlink:href="#DejaVuSans-31"/>
       <use xlink:href="#DejaVuSans-32" transform="translate(63.623047 0)"/>
       <use xlink:href="#DejaVuSans-30" transform="translate(127.246094 0)"/>
       <use xlink:href="#DejaVuSans-30" transform="translate(190.869141 0)"/>
      </g>
     </g>
    </g>
    <g id="xtick_8">
     <g id="line2d_15">
      <path d="M 400.462443 385.478125 
L 400.462443 31.318125 
" clip-path="url(#p0abc9c29ed)" style="fill: none; stroke-dasharray: 2.96,1.28; stroke-dashoffset: 0; stroke: #b0b0b0; stroke-opacity: 0.7; stroke-width: 0.8"/>
     </g>
     <g id="line2d_16">
      <g>
       <use xlink:href="#m7d088291ac" x="400.462443" y="385.478125" style="stroke: #000000; stroke-width: 0.8"/>
      </g>
     </g>
     <g id="text_8">
      <!-- 1400 -->
      <g transform="translate(387.737443 400.076562) scale(0.1 -0.1)">
       <use xlink:href="#DejaVuSans-31"/>
       <use xlink:href="#DejaVuSans-34" transform="translate(63.623047 0)"/>
       <use xlink:href="#DejaVuSans-30" transform="translate(127.246094 0)"/>
       <use xlink:href="#DejaVuSans-30" transform="translate(190.869141 0)"/>
      </g>
     </g>
    </g>
    <g id="text_9">
     <!-- x (Bat) -->
     <g transform="translate(215.225938 413.754687) scale(0.1 -0.1)">
      <defs>
       <path id="DejaVuSans-78" d="M 3513 3500 
L 2247 1797 
L 3578 0 
L 2900 0 
L 1881 1375 
L 863 0 
L 184 0 
L 1544 1831 
L 300 3500 
L 978 3500 
L 1906 2253 
L 2834 3500 
L 3513 3500 
z
" transform="scale(0.015625)"/>
       <path id="DejaVuSans-20" transform="scale(0.015625)"/>
       <path id="DejaVuSans-28" d="M 1984 4856 
Q 1566 4138 1362 3434 
Q 1159 2731 1159 2009 
Q 1159 1288 1364 580 
Q 1569 -128 1984 -844 
L 1484 -844 
Q 1016 -109 783 600 
Q 550 1309 550 2009 
Q 550 2706 781 3412 
Q 1013 4119 1484 4856 
L 1984 4856 
z
" transform="scale(0.015625)"/>
       <path id="DejaVuSans-42" d="M 1259 2228 
L 1259 519 
L 2272 519 
Q 2781 519 3026 730 
Q 3272 941 3272 1375 
Q 3272 1813 3026 2020 
Q 2781 2228 2272 2228 
L 1259 2228 
z
M 1259 4147 
L 1259 2741 
L 2194 2741 
Q 2656 2741 2882 2914 
Q 3109 3088 3109 3444 
Q 3109 3797 2882 3972 
Q 2656 4147 2194 4147 
L 1259 4147 
z
M 628 4666 
L 2241 4666 
Q 2963 4666 3353 4366 
Q 3744 4066 3744 3513 
Q 3744 3084 3544 2831 
Q 3344 2578 2956 2516 
Q 3422 2416 3680 2098 
Q 3938 1781 3938 1306 
Q 3938 681 3513 340 
Q 3088 0 2303 0 
L 628 0 
L 628 4666 
z
" transform="scale(0.015625)"/>
       <path id="DejaVuSans-61" d="M 2194 1759 
Q 1497 1759 1228 1600 
Q 959 1441 959 1056 
Q 959 750 1161 570 
Q 1363 391 1709 391 
Q 2188 391 2477 730 
Q 2766 1069 2766 1631 
L 2766 1759 
L 2194 1759 
z
M 3341 1997 
L 3341 0 
L 2766 0 
L 2766 531 
Q 2569 213 2275 61 
Q 1981 -91 1556 -91 
Q 1019 -91 701 211 
Q 384 513 384 1019 
Q 384 1609 779 1909 
Q 1175 2209 1959 2209 
L 2766 2209 
L 2766 2266 
Q 2766 2663 2505 2880 
Q 2244 3097 1772 3097 
Q 1472 3097 1187 3025 
Q 903 2953 641 2809 
L 641 3341 
Q 956 3463 1253 3523 
Q 1550 3584 1831 3584 
Q 2591 3584 2966 3190 
Q 3341 2797 3341 1997 
z
" transform="scale(0.015625)"/>
       <path id="DejaVuSans-74" d="M 1172 4494 
L 1172 3500 
L 2356 3500 
L 2356 3053 
L 1172 3053 
L 1172 1153 
Q 1172 725 1289 603 
Q 1406 481 1766 481 
L 2356 481 
L 2356 0 
L 1766 0 
Q 1100 0 847 248 
Q 594 497 594 1153 
L 594 3053 
L 172 3053 
L 172 3500 
L 594 3500 
L 594 4494 
L 1172 4494 
z
" transform="scale(0.015625)"/>
       <path id="DejaVuSans-29" d="M 513 4856 
L 1013 4856 
Q 1481 4119 1714 3412 
Q 1947 2706 1947 2009 
Q 1947 1309 1714 600 
Q 1481 -109 1013 -844 
L 513 -844 
Q 928 -128 1133 580 
Q 1338 1288 1338 2009 
Q 1338 2731 1133 3434 
Q 928 4138 513 4856 
z
" transform="scale(0.015625)"/>
      </defs>
      <use xlink:href="#DejaVuSans-78"/>
      <use xlink:href="#DejaVuSans-20" transform="translate(59.179688 0)"/>
      <use xlink:href="#DejaVuSans-28" transform="translate(90.966797 0)"/>
      <use xlink:href="#DejaVuSans-42" transform="translate(129.980469 0)"/>
      <use xlink:href="#DejaVuSans-61" transform="translate(198.583984 0)"/>
      <use xlink:href="#DejaVuSans-74" transform="translate(259.863281 0)"/>
      <use xlink:href="#DejaVuSans-29" transform="translate(299.072266 0)"/>
     </g>
    </g>
   </g>
   <g id="matplotlib.axis_2">
    <g id="ytick_1">
     <g id="line2d_17">
      <path d="M 46.965625 346.382541 
L 417.295625 346.382541 
" clip-path="url(#p0abc9c29ed)" style="fill: none; stroke-dasharray: 2.96,1.28; stroke-dashoffset: 0; stroke: #b0b0b0; stroke-opacity: 0.7; stroke-width: 0.8"/>
     </g>
     <g id="line2d_18">
      <defs>
       <path id="mb76fd329bc" d="M 0 0 
L -3.5 0 
" style="stroke: #000000; stroke-width: 0.8"/>
      </defs>
      <g>
       <use xlink:href="#mb76fd329bc" x="46.965625" y="346.382541" style="stroke: #000000; stroke-width: 0.8"/>
      </g>
     </g>
     <g id="text_10">
      <!-- 0 -->
      <g transform="translate(33.603125 350.181759) scale(0.1 -0.1)">
       <use xlink:href="#DejaVuSans-30"/>
      </g>
     </g>
    </g>
    <g id="ytick_2">
     <g id="line2d_19">
      <path d="M 46.965625 300.387735 
L 417.295625 300.387735 
" clip-path="url(#p0abc9c29ed)" style="fill: none; stroke-dasharray: 2.96,1.28; stroke-dashoffset: 0; stroke: #b0b0b0; stroke-opacity: 0.7; stroke-width: 0.8"/>
     </g>
     <g id="line2d_20">
      <g>
       <use xlink:href="#mb76fd329bc" x="46.965625" y="300.387735" style="stroke: #000000; stroke-width: 0.8"/>
      </g>
     </g>
     <g id="text_11">
      <!-- 100 -->
      <g transform="translate(20.878125 304.186954) scale(0.1 -0.1)">
       <use xlink:href="#DejaVuSans-31"/>
       <use xlink:href="#DejaVuSans-30" transform="translate(63.623047 0)"/>
       <use xlink:href="#DejaVuSans-30" transform="translate(127.246094 0)"/>
      </g>
     </g>
    </g>
    <g id="ytick_3">
     <g id="line2d_21">
      <path d="M 46.965625 254.39293 
L 417.295625 254.39293 
" clip-path="url(#p0abc9c29ed)" style="fill: none; stroke-dasharray: 2.96,1.28; stroke-dashoffset: 0; stroke: #b0b0b0; stroke-opacity: 0.7; stroke-width: 0.8"/>
     </g>
     <g id="line2d_22">
      <g>
       <use xlink:href="#mb76fd329bc" x="46.965625" y="254.39293" style="stroke: #000000; stroke-width: 0.8"/>
      </g>
     </g>
     <g id="text_12">
      <!-- 200 -->
      <g transform="translate(20.878125 258.192149) scale(0.1 -0.1)">
       <use xlink:href="#DejaVuSans-32"/>
       <use xlink:href="#DejaVuSans-30" transform="translate(63.623047 0)"/>
       <use xlink:href="#DejaVuSans-30" transform="translate(127.246094 0)"/>
      </g>
     </g>
    </g>
    <g id="ytick_4">
     <g id="line2d_23">
      <path d="M 46.965625 208.398125 
L 417.295625 208.398125 
" clip-path="url(#p0abc9c29ed)" style="fill: none; stroke-dasharray: 2.96,1.28; stroke-dashoffset: 0; stroke: #b0b0b0; stroke-opacity: 0.7; stroke-width: 0.8"/>
     </g>
     <g id="line2d_24">
      <g>
       <use xlink:href="#mb76fd329bc" x="46.965625" y="208.398125" style="stroke: #000000; stroke-width: 0.8"/>
      </g>
     </g>
     <g id="text_13">
      <!-- 300 -->
      <g transform="translate(20.878125 212.197344) scale(0.1 -0.1)">
       <defs>
        <path id="DejaVuSans-33" d="M 2597 2516 
Q 3050 2419 3304 2112 
Q 3559 1806 3559 1356 
Q 3559 666 3084 287 
Q 2609 -91 1734 -91 
Q 1441 -91 1130 -33 
Q 819 25 488 141 
L 488 750 
Q 750 597 1062 519 
Q 1375 441 1716 441 
Q 2309 441 2620 675 
Q 2931 909 2931 1356 
Q 2931 1769 2642 2001 
Q 2353 2234 1838 2234 
L 1294 2234 
L 1294 2753 
L 1863 2753 
Q 2328 2753 2575 2939 
Q 2822 3125 2822 3475 
Q 2822 3834 2567 4026 
Q 2313 4219 1838 4219 
Q 1578 4219 1281 4162 
Q 984 4106 628 3988 
L 628 4550 
Q 988 4650 1302 4700 
Q 1616 4750 1894 4750 
Q 2613 4750 3031 4423 
Q 3450 4097 3450 3541 
Q 3450 3153 3228 2886 
Q 3006 2619 2597 2516 
z
" transform="scale(0.015625)"/>
       </defs>
       <use xlink:href="#DejaVuSans-33"/>
       <use xlink:href="#DejaVuSans-30" transform="translate(63.623047 0)"/>
       <use xlink:href="#DejaVuSans-30" transform="translate(127.246094 0)"/>
      </g>
     </g>
    </g>
    <g id="ytick_5">
     <g id="line2d_25">
      <path d="M 46.965625 162.40332 
L 417.295625 162.40332 
" clip-path="url(#p0abc9c29ed)" style="fill: none; stroke-dasharray: 2.96,1.28; stroke-dashoffset: 0; stroke: #b0b0b0; stroke-opacity: 0.7; stroke-width: 0.8"/>
     </g>
     <g id="line2d_26">
      <g>
       <use xlink:href="#mb76fd329bc" x="46.965625" y="162.40332" style="stroke: #000000; stroke-width: 0.8"/>
      </g>
     </g>
     <g id="text_14">
      <!-- 400 -->
      <g transform="translate(20.878125 166.202539) scale(0.1 -0.1)">
       <use xlink:href="#DejaVuSans-34"/>
       <use xlink:href="#DejaVuSans-30" transform="translate(63.623047 0)"/>
       <use xlink:href="#DejaVuSans-30" transform="translate(127.246094 0)"/>
      </g>
     </g>
    </g>
    <g id="ytick_6">
     <g id="line2d_27">
      <path d="M 46.965625 116.408515 
L 417.295625 116.408515 
" clip-path="url(#p0abc9c29ed)" style="fill: none; stroke-dasharray: 2.96,1.28; stroke-dashoffset: 0; stroke: #b0b0b0; stroke-opacity: 0.7; stroke-width: 0.8"/>
     </g>
     <g id="line2d_28">
      <g>
       <use xlink:href="#mb76fd329bc" x="46.965625" y="116.408515" style="stroke: #000000; stroke-width: 0.8"/>
      </g>
     </g>
     <g id="text_15">
      <!-- 500 -->
      <g transform="translate(20.878125 120.207733) scale(0.1 -0.1)">
       <defs>
        <path id="DejaVuSans-35" d="M 691 4666 
L 3169 4666 
L 3169 4134 
L 1269 4134 
L 1269 2991 
Q 1406 3038 1543 3061 
Q 1681 3084 1819 3084 
Q 2600 3084 3056 2656 
Q 3513 2228 3513 1497 
Q 3513 744 3044 326 
Q 2575 -91 1722 -91 
Q 1428 -91 1123 -41 
Q 819 9 494 109 
L 494 744 
Q 775 591 1075 516 
Q 1375 441 1709 441 
Q 2250 441 2565 725 
Q 2881 1009 2881 1497 
Q 2881 1984 2565 2268 
Q 2250 2553 1709 2553 
Q 1456 2553 1204 2497 
Q 953 2441 691 2322 
L 691 4666 
z
" transform="scale(0.015625)"/>
       </defs>
       <use xlink:href="#DejaVuSans-35"/>
       <use xlink:href="#DejaVuSans-30" transform="translate(63.623047 0)"/>
       <use xlink:href="#DejaVuSans-30" transform="translate(127.246094 0)"/>
      </g>
     </g>
    </g>
    <g id="ytick_7">
     <g id="line2d_29">
      <path d="M 46.965625 70.413709 
L 417.295625 70.413709 
" clip-path="url(#p0abc9c29ed)" style="fill: none; stroke-dasharray: 2.96,1.28; stroke-dashoffset: 0; stroke: #b0b0b0; stroke-opacity: 0.7; stroke-width: 0.8"/>
     </g>
     <g id="line2d_30">
      <g>
       <use xlink:href="#mb76fd329bc" x="46.965625" y="70.413709" style="stroke: #000000; stroke-width: 0.8"/>
      </g>
     </g>
     <g id="text_16">
      <!-- 600 -->
      <g transform="translate(20.878125 74.212928) scale(0.1 -0.1)">
       <use xlink:href="#DejaVuSans-36"/>
       <use xlink:href="#DejaVuSans-30" transform="translate(63.623047 0)"/>
       <use xlink:href="#DejaVuSans-30" transform="translate(127.246094 0)"/>
      </g>
     </g>
    </g>
    <g id="text_17">
     <!-- y (Ball) -->
     <g transform="translate(14.798437 226.120781) rotate(-90) scale(0.1 -0.1)">
      <defs>
       <path id="DejaVuSans-79" d="M 2059 -325 
Q 1816 -950 1584 -1140 
Q 1353 -1331 966 -1331 
L 506 -1331 
L 506 -850 
L 844 -850 
Q 1081 -850 1212 -737 
Q 1344 -625 1503 -206 
L 1606 56 
L 191 3500 
L 800 3500 
L 1894 763 
L 2988 3500 
L 3597 3500 
L 2059 -325 
z
" transform="scale(0.015625)"/>
       <path id="DejaVuSans-6c" d="M 603 4863 
L 1178 4863 
L 1178 0 
L 603 0 
L 603 4863 
z
" transform="scale(0.015625)"/>
      </defs>
      <use xlink:href="#DejaVuSans-79"/>
      <use xlink:href="#DejaVuSans-20" transform="translate(59.179688 0)"/>
      <use xlink:href="#DejaVuSans-28" transform="translate(90.966797 0)"/>
      <use xlink:href="#DejaVuSans-42" transform="translate(129.980469 0)"/>
      <use xlink:href="#DejaVuSans-61" transform="translate(198.583984 0)"/>
      <use xlink:href="#DejaVuSans-6c" transform="translate(259.863281 0)"/>
      <use xlink:href="#DejaVuSans-6c" transform="translate(287.646484 0)"/>
      <use xlink:href="#DejaVuSans-29" transform="translate(315.429688 0)"/>
     </g>
    </g>
   </g>
   <g id="line2d_31">
    <path d="M 46.965625 346.382541 
L 417.295625 346.382541 
" clip-path="url(#p0abc9c29ed)" style="fill: none; stroke: #000000; stroke-linecap: square"/>
   </g>
   <g id="line2d_32">
    <path d="M 63.798807 385.478125 
L 63.798807 31.318125 
" clip-path="url(#p0abc9c29ed)" style="fill: none; stroke: #000000; stroke-linecap: square"/>
   </g>
   <g id="line2d_33">
    <path d="M 63.798807 47.416307 
L 67.19945 50.668465 
L 70.600092 53.920623 
L 74.000735 57.172781 
L 77.401378 60.424939 
L 80.802021 63.677097 
L 84.202664 66.929254 
L 87.603306 70.181412 
L 91.003949 73.43357 
L 94.404592 76.685728 
L 97.805235 79.937886 
L 101.205878 83.190044 
L 104.60652 86.442202 
L 108.007163 89.69436 
L 111.407806 92.946518 
L 114.808449 96.198676 
L 118.209091 99.450834 
L 121.609734 102.702992 
L 125.010377 105.95515 
L 128.41102 109.207308 
L 131.811663 112.459466 
L 135.212305 115.711624 
L 138.612948 118.963782 
L 142.013591 122.21594 
L 145.414234 125.468097 
L 148.814877 128.720255 
L 152.215519 131.972413 
L 155.616162 135.224571 
L 159.016805 138.476729 
L 162.417448 141.728887 
L 165.818091 144.981045 
L 169.218733 148.233203 
L 172.619376 151.485361 
L 176.020019 154.737519 
L 179.420662 157.989677 
L 182.821305 161.241835 
L 186.221947 164.493993 
L 189.62259 167.746151 
L 193.023233 170.998309 
L 196.423876 174.250467 
L 199.824518 177.502625 
L 203.225161 180.754782 
L 206.625804 184.00694 
L 210.026447 187.259098 
L 213.42709 190.511256 
L 216.827732 193.763414 
L 220.228375 197.015572 
L 223.629018 200.26773 
L 227.029661 203.519888 
L 230.430304 206.772046 
L 233.830946 210.024204 
L 237.231589 213.276362 
L 240.632232 216.52852 
L 244.032875 219.780678 
L 247.433518 223.032836 
L 250.83416 226.284994 
L 254.234803 229.537152 
L 257.635446 232.78931 
L 261.036089 236.041468 
L 264.436732 239.293625 
L 267.837374 242.545783 
L 271.238017 245.797941 
L 274.63866 249.050099 
L 278.039303 252.302257 
L 281.439945 255.554415 
L 284.840588 258.806573 
L 288.241231 262.058731 
L 291.641874 265.310889 
L 295.042517 268.563047 
L 298.443159 271.815205 
L 301.843802 275.067363 
L 305.244445 278.319521 
L 308.645088 281.571679 
L 312.045731 284.823837 
L 315.446373 288.075995 
L 318.847016 291.328153 
L 322.247659 294.58031 
L 325.648302 297.832468 
L 329.048945 301.084626 
L 332.449587 304.336784 
L 335.85023 307.588942 
L 339.250873 310.8411 
L 342.651516 314.093258 
L 346.052159 317.345416 
L 349.452801 320.597574 
L 352.853444 323.849732 
L 356.254087 327.10189 
L 359.65473 330.354048 
L 363.055372 333.606206 
L 366.456015 336.858364 
L 369.856658 340.110522 
L 373.257301 343.36268 
L 376.657944 346.614838 
L 380.058586 349.866996 
L 383.459229 353.119153 
L 386.859872 356.371311 
L 390.260515 359.623469 
L 393.661158 362.875627 
L 397.0618 366.127785 
L 400.462443 369.379943 
" clip-path="url(#p0abc9c29ed)" style="fill: none; stroke: #0000ff; stroke-width: 1.5; stroke-linecap: square"/>
   </g>
   <g id="line2d_34">
    <path d="M 63.798807 147.071718 
L 67.19945 149.239823 
L 70.600092 151.407929 
L 74.000735 153.576034 
L 77.401378 155.744139 
L 80.802021 157.912245 
L 84.202664 160.08035 
L 87.603306 162.248455 
L 91.003949 164.41656 
L 94.404592 166.584666 
L 97.805235 168.752771 
L 101.205878 170.920876 
L 104.60652 173.088982 
L 108.007163 175.257087 
L 111.407806 177.425192 
L 114.808449 179.593298 
L 118.209091 181.761403 
L 121.609734 183.929508 
L 125.010377 186.097613 
L 128.41102 188.265719 
L 131.811663 190.433824 
L 135.212305 192.601929 
L 138.612948 194.770035 
L 142.013591 196.93814 
L 145.414234 199.106245 
L 148.814877 201.27435 
L 152.215519 203.442456 
L 155.616162 205.610561 
L 159.016805 207.778666 
L 162.417448 209.946772 
L 165.818091 212.114877 
L 169.218733 214.282982 
L 172.619376 216.451088 
L 176.020019 218.619193 
L 179.420662 220.787298 
L 182.821305 222.955403 
L 186.221947 225.123509 
L 189.62259 227.291614 
L 193.023233 229.459719 
L 196.423876 231.627825 
L 199.824518 233.79593 
L 203.225161 235.964035 
L 206.625804 238.13214 
L 210.026447 240.300246 
L 213.42709 242.468351 
L 216.827732 244.636456 
L 220.228375 246.804562 
L 223.629018 248.972667 
L 227.029661 251.140772 
L 230.430304 253.308878 
L 233.830946 255.476983 
L 237.231589 257.645088 
L 240.632232 259.813193 
L 244.032875 261.981299 
L 247.433518 264.149404 
L 250.83416 266.317509 
L 254.234803 268.485615 
L 257.635446 270.65372 
L 261.036089 272.821825 
L 264.436732 274.989931 
L 267.837374 277.158036 
L 271.238017 279.326141 
L 274.63866 281.494246 
L 278.039303 283.662352 
L 281.439945 285.830457 
L 284.840588 287.998562 
L 288.241231 290.166668 
L 291.641874 292.334773 
L 295.042517 294.502878 
L 298.443159 296.670983 
L 301.843802 298.839089 
L 305.244445 301.007194 
L 308.645088 303.175299 
L 312.045731 305.343405 
L 315.446373 307.51151 
L 318.847016 309.679615 
L 322.247659 311.847721 
L 325.648302 314.015826 
L 329.048945 316.183931 
L 332.449587 318.352036 
L 335.85023 320.520142 
L 339.250873 322.688247 
L 342.651516 324.856352 
L 346.052159 327.024458 
L 349.452801 329.192563 
L 352.853444 331.360668 
L 356.254087 333.528773 
L 359.65473 335.696879 
L 363.055372 337.864984 
L 366.456015 340.033089 
L 369.856658 342.201195 
L 373.257301 344.3693 
L 376.657944 346.537405 
L 380.058586 348.705511 
L 383.459229 350.873616 
L 386.859872 353.041721 
L 390.260515 355.209826 
L 393.661158 357.377932 
L 397.0618 359.546037 
L 400.462443 361.714142 
" clip-path="url(#p0abc9c29ed)" style="fill: none; stroke: #ff0000; stroke-width: 1.5; stroke-linecap: square"/>
   </g>
   <g id="patch_3">
    <path d="M 46.965625 385.478125 
L 46.965625 31.318125 
" style="fill: none; stroke: #000000; stroke-width: 0.8; stroke-linejoin: miter; stroke-linecap: square"/>
   </g>
   <g id="patch_4">
    <path d="M 417.295625 385.478125 
L 417.295625 31.318125 
" style="fill: none; stroke: #000000; stroke-width: 0.8; stroke-linejoin: miter; stroke-linecap: square"/>
   </g>
   <g id="patch_5">
    <path d="M 46.965625 385.478125 
L 417.295625 385.478125 
" style="fill: none; stroke: #000000; stroke-width: 0.8; stroke-linejoin: miter; stroke-linecap: square"/>
   </g>
   <g id="patch_6">
    <path d="M 46.965625 31.318125 
L 417.295625 31.318125 
" style="fill: none; stroke: #000000; stroke-width: 0.8; stroke-linejoin: miter; stroke-linecap: square"/>
   </g>
   <g id="text_18">
    <!-- (1300, 0) -->
    <g transform="translate(336.415041 336.382541) scale(0.09 -0.09)">
     <defs>
      <path id="DejaVuSans-2c" d="M 750 794 
L 1409 794 
L 1409 256 
L 897 -744 
L 494 -744 
L 750 256 
L 750 794 
z
" transform="scale(0.015625)"/>
     </defs>
     <use xlink:href="#DejaVuSans-28"/>
     <use xlink:href="#DejaVuSans-31" transform="translate(39.013672 0)"/>
     <use xlink:href="#DejaVuSans-33" transform="translate(102.636719 0)"/>
     <use xlink:href="#DejaVuSans-30" transform="translate(166.259766 0)"/>
     <use xlink:href="#DejaVuSans-30" transform="translate(229.882812 0)"/>
     <use xlink:href="#DejaVuSans-2c" transform="translate(293.505859 0)"/>
     <use xlink:href="#DejaVuSans-20" transform="translate(325.292969 0)"/>
     <use xlink:href="#DejaVuSans-30" transform="translate(357.080078 0)"/>
     <use xlink:href="#DejaVuSans-29" transform="translate(420.703125 0)"/>
    </g>
   </g>
   <g id="text_19">
    <!-- (100, 600) -->
    <g transform="translate(92.846209 65.413709) scale(0.09 -0.09)">
     <use xlink:href="#DejaVuSans-28"/>
     <use xlink:href="#DejaVuSans-31" transform="translate(39.013672 0)"/>
     <use xlink:href="#DejaVuSans-30" transform="translate(102.636719 0)"/>
     <use xlink:href="#DejaVuSans-30" transform="translate(166.259766 0)"/>
     <use xlink:href="#DejaVuSans-2c" transform="translate(229.882812 0)"/>
     <use xlink:href="#DejaVuSans-20" transform="translate(261.669922 0)"/>
     <use xlink:href="#DejaVuSans-36" transform="translate(293.457031 0)"/>
     <use xlink:href="#DejaVuSans-30" transform="translate(357.080078 0)"/>
     <use xlink:href="#DejaVuSans-30" transform="translate(420.703125 0)"/>
     <use xlink:href="#DejaVuSans-29" transform="translate(484.326172 0)"/>
    </g>
   </g>
   <g id="text_20">
    <!-- (100, 400) -->
    <g transform="translate(92.846209 157.40332) scale(0.09 -0.09)">
     <use xlink:href="#DejaVuSans-28"/>
     <use xlink:href="#DejaVuSans-31" transform="translate(39.013672 0)"/>
     <use xlink:href="#DejaVuSans-30" transform="translate(102.636719 0)"/>
     <use xlink:href="#DejaVuSans-30" transform="translate(166.259766 0)"/>
     <use xlink:href="#DejaVuSans-2c" transform="translate(229.882812 0)"/>
     <use xlink:href="#DejaVuSans-20" transform="translate(261.669922 0)"/>
     <use xlink:href="#DejaVuSans-34" transform="translate(293.457031 0)"/>
     <use xlink:href="#DejaVuSans-30" transform="translate(357.080078 0)"/>
     <use xlink:href="#DejaVuSans-30" transform="translate(420.703125 0)"/>
     <use xlink:href="#DejaVuSans-29" transform="translate(484.326172 0)"/>
    </g>
   </g>
   <g id="text_21">
    <!-- (0, 650) -->
    <g transform="translate(68.798807 42.416307) scale(0.09 -0.09)">
     <use xlink:href="#DejaVuSans-28"/>
     <use xlink:href="#DejaVuSans-30" transform="translate(39.013672 0)"/>
     <use xlink:href="#DejaVuSans-2c" transform="translate(102.636719 0)"/>
     <use xlink:href="#DejaVuSans-20" transform="translate(134.423828 0)"/>
     <use xlink:href="#DejaVuSans-36" transform="translate(166.210938 0)"/>
     <use xlink:href="#DejaVuSans-35" transform="translate(229.833984 0)"/>
     <use xlink:href="#DejaVuSans-30" transform="translate(293.457031 0)"/>
     <use xlink:href="#DejaVuSans-29" transform="translate(357.080078 0)"/>
    </g>
   </g>
   <g id="text_22">
    <!-- (0, 433) -->
    <g transform="translate(68.798807 142.08705) scale(0.09 -0.09)">
     <use xlink:href="#DejaVuSans-28"/>
     <use xlink:href="#DejaVuSans-30" transform="translate(39.013672 0)"/>
     <use xlink:href="#DejaVuSans-2c" transform="translate(102.636719 0)"/>
     <use xlink:href="#DejaVuSans-20" transform="translate(134.423828 0)"/>
     <use xlink:href="#DejaVuSans-34" transform="translate(166.210938 0)"/>
     <use xlink:href="#DejaVuSans-33" transform="translate(229.833984 0)"/>
     <use xlink:href="#DejaVuSans-33" transform="translate(293.457031 0)"/>
     <use xlink:href="#DejaVuSans-29" transform="translate(357.080078 0)"/>
    </g>
   </g>
   <g id="text_23">
    <!-- Graph of Bats and Balls -->
    <g transform="translate(161.503125 16.318125) scale(0.12 -0.12)">
     <defs>
      <path id="DejaVuSans-47" d="M 3809 666 
L 3809 1919 
L 2778 1919 
L 2778 2438 
L 4434 2438 
L 4434 434 
Q 4069 175 3628 42 
Q 3188 -91 2688 -91 
Q 1594 -91 976 548 
Q 359 1188 359 2328 
Q 359 3472 976 4111 
Q 1594 4750 2688 4750 
Q 3144 4750 3555 4637 
Q 3966 4525 4313 4306 
L 4313 3634 
Q 3963 3931 3569 4081 
Q 3175 4231 2741 4231 
Q 1884 4231 1454 3753 
Q 1025 3275 1025 2328 
Q 1025 1384 1454 906 
Q 1884 428 2741 428 
Q 3075 428 3337 486 
Q 3600 544 3809 666 
z
" transform="scale(0.015625)"/>
      <path id="DejaVuSans-72" d="M 2631 2963 
Q 2534 3019 2420 3045 
Q 2306 3072 2169 3072 
Q 1681 3072 1420 2755 
Q 1159 2438 1159 1844 
L 1159 0 
L 581 0 
L 581 3500 
L 1159 3500 
L 1159 2956 
Q 1341 3275 1631 3429 
Q 1922 3584 2338 3584 
Q 2397 3584 2469 3576 
Q 2541 3569 2628 3553 
L 2631 2963 
z
" transform="scale(0.015625)"/>
      <path id="DejaVuSans-70" d="M 1159 525 
L 1159 -1331 
L 581 -1331 
L 581 3500 
L 1159 3500 
L 1159 2969 
Q 1341 3281 1617 3432 
Q 1894 3584 2278 3584 
Q 2916 3584 3314 3078 
Q 3713 2572 3713 1747 
Q 3713 922 3314 415 
Q 2916 -91 2278 -91 
Q 1894 -91 1617 61 
Q 1341 213 1159 525 
z
M 3116 1747 
Q 3116 2381 2855 2742 
Q 2594 3103 2138 3103 
Q 1681 3103 1420 2742 
Q 1159 2381 1159 1747 
Q 1159 1113 1420 752 
Q 1681 391 2138 391 
Q 2594 391 2855 752 
Q 3116 1113 3116 1747 
z
" transform="scale(0.015625)"/>
      <path id="DejaVuSans-68" d="M 3513 2113 
L 3513 0 
L 2938 0 
L 2938 2094 
Q 2938 2591 2744 2837 
Q 2550 3084 2163 3084 
Q 1697 3084 1428 2787 
Q 1159 2491 1159 1978 
L 1159 0 
L 581 0 
L 581 4863 
L 1159 4863 
L 1159 2956 
Q 1366 3272 1645 3428 
Q 1925 3584 2291 3584 
Q 2894 3584 3203 3211 
Q 3513 2838 3513 2113 
z
" transform="scale(0.015625)"/>
      <path id="DejaVuSans-6f" d="M 1959 3097 
Q 1497 3097 1228 2736 
Q 959 2375 959 1747 
Q 959 1119 1226 758 
Q 1494 397 1959 397 
Q 2419 397 2687 759 
Q 2956 1122 2956 1747 
Q 2956 2369 2687 2733 
Q 2419 3097 1959 3097 
z
M 1959 3584 
Q 2709 3584 3137 3096 
Q 3566 2609 3566 1747 
Q 3566 888 3137 398 
Q 2709 -91 1959 -91 
Q 1206 -91 779 398 
Q 353 888 353 1747 
Q 353 2609 779 3096 
Q 1206 3584 1959 3584 
z
" transform="scale(0.015625)"/>
      <path id="DejaVuSans-66" d="M 2375 4863 
L 2375 4384 
L 1825 4384 
Q 1516 4384 1395 4259 
Q 1275 4134 1275 3809 
L 1275 3500 
L 2222 3500 
L 2222 3053 
L 1275 3053 
L 1275 0 
L 697 0 
L 697 3053 
L 147 3053 
L 147 3500 
L 697 3500 
L 697 3744 
Q 697 4328 969 4595 
Q 1241 4863 1831 4863 
L 2375 4863 
z
" transform="scale(0.015625)"/>
      <path id="DejaVuSans-73" d="M 2834 3397 
L 2834 2853 
Q 2591 2978 2328 3040 
Q 2066 3103 1784 3103 
Q 1356 3103 1142 2972 
Q 928 2841 928 2578 
Q 928 2378 1081 2264 
Q 1234 2150 1697 2047 
L 1894 2003 
Q 2506 1872 2764 1633 
Q 3022 1394 3022 966 
Q 3022 478 2636 193 
Q 2250 -91 1575 -91 
Q 1294 -91 989 -36 
Q 684 19 347 128 
L 347 722 
Q 666 556 975 473 
Q 1284 391 1588 391 
Q 1994 391 2212 530 
Q 2431 669 2431 922 
Q 2431 1156 2273 1281 
Q 2116 1406 1581 1522 
L 1381 1569 
Q 847 1681 609 1914 
Q 372 2147 372 2553 
Q 372 3047 722 3315 
Q 1072 3584 1716 3584 
Q 2034 3584 2315 3537 
Q 2597 3491 2834 3397 
z
" transform="scale(0.015625)"/>
      <path id="DejaVuSans-6e" d="M 3513 2113 
L 3513 0 
L 2938 0 
L 2938 2094 
Q 2938 2591 2744 2837 
Q 2550 3084 2163 3084 
Q 1697 3084 1428 2787 
Q 1159 2491 1159 1978 
L 1159 0 
L 581 0 
L 581 3500 
L 1159 3500 
L 1159 2956 
Q 1366 3272 1645 3428 
Q 1925 3584 2291 3584 
Q 2894 3584 3203 3211 
Q 3513 2838 3513 2113 
z
" transform="scale(0.015625)"/>
      <path id="DejaVuSans-64" d="M 2906 2969 
L 2906 4863 
L 3481 4863 
L 3481 0 
L 2906 0 
L 2906 525 
Q 2725 213 2448 61 
Q 2172 -91 1784 -91 
Q 1150 -91 751 415 
Q 353 922 353 1747 
Q 353 2572 751 3078 
Q 1150 3584 1784 3584 
Q 2172 3584 2448 3432 
Q 2725 3281 2906 2969 
z
M 947 1747 
Q 947 1113 1208 752 
Q 1469 391 1925 391 
Q 2381 391 2643 752 
Q 2906 1113 2906 1747 
Q 2906 2381 2643 2742 
Q 2381 3103 1925 3103 
Q 1469 3103 1208 2742 
Q 947 2381 947 1747 
z
" transform="scale(0.015625)"/>
     </defs>
     <use xlink:href="#DejaVuSans-47"/>
     <use xlink:href="#DejaVuSans-72" transform="translate(77.490234 0)"/>
     <use xlink:href="#DejaVuSans-61" transform="translate(118.603516 0)"/>
     <use xlink:href="#DejaVuSans-70" transform="translate(179.882812 0)"/>
     <use xlink:href="#DejaVuSans-68" transform="translate(243.359375 0)"/>
     <use xlink:href="#DejaVuSans-20" transform="translate(306.738281 0)"/>
     <use xlink:href="#DejaVuSans-6f" transform="translate(338.525391 0)"/>
     <use xlink:href="#DejaVuSans-66" transform="translate(399.707031 0)"/>
     <use xlink:href="#DejaVuSans-20" transform="translate(434.912109 0)"/>
     <use xlink:href="#DejaVuSans-42" transform="translate(466.699219 0)"/>
     <use xlink:href="#DejaVuSans-61" transform="translate(535.302734 0)"/>
     <use xlink:href="#DejaVuSans-74" transform="translate(596.582031 0)"/>
     <use xlink:href="#DejaVuSans-73" transform="translate(635.791016 0)"/>
     <use xlink:href="#DejaVuSans-20" transform="translate(687.890625 0)"/>
     <use xlink:href="#DejaVuSans-61" transform="translate(719.677734 0)"/>
     <use xlink:href="#DejaVuSans-6e" transform="translate(780.957031 0)"/>
     <use xlink:href="#DejaVuSans-64" transform="translate(844.335938 0)"/>
     <use xlink:href="#DejaVuSans-20" transform="translate(907.8125 0)"/>
     <use xlink:href="#DejaVuSans-42" transform="translate(939.599609 0)"/>
     <use xlink:href="#DejaVuSans-61" transform="translate(1008.203125 0)"/>
     <use xlink:href="#DejaVuSans-6c" transform="translate(1069.482422 0)"/>
     <use xlink:href="#DejaVuSans-6c" transform="translate(1097.265625 0)"/>
     <use xlink:href="#DejaVuSans-73" transform="translate(1125.048828 0)"/>
    </g>
   </g>
   <g id="PathCollection_1">
    <defs>
     <path id="m7ba3cb9709" d="M 0 2.738613 
C 0.726289 2.738613 1.422928 2.450055 1.936492 1.936492 
C 2.450055 1.422928 2.738613 0.726289 2.738613 0 
C 2.738613 -0.726289 2.450055 -1.422928 1.936492 -1.936492 
C 1.422928 -2.450055 0.726289 -2.738613 0 -2.738613 
C -0.726289 -2.738613 -1.422928 -2.450055 -1.936492 -1.936492 
C -2.450055 -1.422928 -2.738613 -0.726289 -2.738613 0 
C -2.738613 0.726289 -2.450055 1.422928 -1.936492 1.936492 
C -1.422928 2.450055 -0.726289 2.738613 0 2.738613 
z
" style="stroke: #000000"/>
    </defs>
    <g clip-path="url(#p0abc9c29ed)">
     <use xlink:href="#m7ba3cb9709" x="376.415041" y="346.382541" style="stroke: #000000"/>
    </g>
   </g>
   <g id="PathCollection_2">
    <g clip-path="url(#p0abc9c29ed)">
     <use xlink:href="#m7ba3cb9709" x="87.846209" y="70.413709" style="stroke: #000000"/>
    </g>
   </g>
   <g id="PathCollection_3">
    <g clip-path="url(#p0abc9c29ed)">
     <use xlink:href="#m7ba3cb9709" x="87.846209" y="162.40332" style="stroke: #000000"/>
    </g>
   </g>
   <g id="PathCollection_4">
    <g clip-path="url(#p0abc9c29ed)">
     <use xlink:href="#m7ba3cb9709" x="63.798807" y="47.416307" style="stroke: #000000"/>
    </g>
   </g>
   <g id="PathCollection_5">
    <g clip-path="url(#p0abc9c29ed)">
     <use xlink:href="#m7ba3cb9709" x="63.798807" y="147.08705" style="stroke: #000000"/>
    </g>
   </g>
   <g id="legend_1">
    <g id="patch_7">
     <path d="M 305.17375 68.674375 
L 410.295625 68.674375 
Q 412.295625 68.674375 412.295625 66.674375 
L 412.295625 38.318125 
Q 412.295625 36.318125 410.295625 36.318125 
L 305.17375 36.318125 
Q 303.17375 36.318125 303.17375 38.318125 
L 303.17375 66.674375 
Q 303.17375 68.674375 305.17375 68.674375 
z
" style="fill: #ffffff; opacity: 0.8; stroke: #cccccc; stroke-linejoin: miter"/>
    </g>
    <g id="line2d_35">
     <path d="M 307.17375 44.416562 
L 317.17375 44.416562 
L 327.17375 44.416562 
" style="fill: none; stroke: #0000ff; stroke-width: 1.5; stroke-linecap: square"/>
    </g>
    <g id="text_24">
     <!-- x + 2y = 1300 -->
     <g transform="translate(335.17375 47.916562) scale(0.1 -0.1)">
      <defs>
       <path id="DejaVuSans-2b" d="M 2944 4013 
L 2944 2272 
L 4684 2272 
L 4684 1741 
L 2944 1741 
L 2944 0 
L 2419 0 
L 2419 1741 
L 678 1741 
L 678 2272 
L 2419 2272 
L 2419 4013 
L 2944 4013 
z
" transform="scale(0.015625)"/>
       <path id="DejaVuSans-3d" d="M 678 2906 
L 4684 2906 
L 4684 2381 
L 678 2381 
L 678 2906 
z
M 678 1631 
L 4684 1631 
L 4684 1100 
L 678 1100 
L 678 1631 
z
" transform="scale(0.015625)"/>
      </defs>
      <use xlink:href="#DejaVuSans-78"/>
      <use xlink:href="#DejaVuSans-20" transform="translate(59.179688 0)"/>
      <use xlink:href="#DejaVuSans-2b" transform="translate(90.966797 0)"/>
      <use xlink:href="#DejaVuSans-20" transform="translate(174.755859 0)"/>
      <use xlink:href="#DejaVuSans-32" transform="translate(206.542969 0)"/>
      <use xlink:href="#DejaVuSans-79" transform="translate(270.166016 0)"/>
      <use xlink:href="#DejaVuSans-20" transform="translate(329.345703 0)"/>
      <use xlink:href="#DejaVuSans-3d" transform="translate(361.132812 0)"/>
      <use xlink:href="#DejaVuSans-20" transform="translate(444.921875 0)"/>
      <use xlink:href="#DejaVuSans-31" transform="translate(476.708984 0)"/>
      <use xlink:href="#DejaVuSans-33" transform="translate(540.332031 0)"/>
      <use xlink:href="#DejaVuSans-30" transform="translate(603.955078 0)"/>
      <use xlink:href="#DejaVuSans-30" transform="translate(667.578125 0)"/>
     </g>
    </g>
    <g id="line2d_36">
     <path d="M 307.17375 59.094687 
L 317.17375 59.094687 
L 327.17375 59.094687 
" style="fill: none; stroke: #ff0000; stroke-width: 1.5; stroke-linecap: square"/>
    </g>
    <g id="text_25">
     <!-- x + 3y = 1300 -->
     <g transform="translate(335.17375 62.594687) scale(0.1 -0.1)">
      <use xlink:href="#DejaVuSans-78"/>
      <use xlink:href="#DejaVuSans-20" transform="translate(59.179688 0)"/>
      <use xlink:href="#DejaVuSans-2b" transform="translate(90.966797 0)"/>
      <use xlink:href="#DejaVuSans-20" transform="translate(174.755859 0)"/>
      <use xlink:href="#DejaVuSans-33" transform="translate(206.542969 0)"/>
      <use xlink:href="#DejaVuSans-79" transform="translate(270.166016 0)"/>
      <use xlink:href="#DejaVuSans-20" transform="translate(329.345703 0)"/>
      <use xlink:href="#DejaVuSans-3d" transform="translate(361.132812 0)"/>
      <use xlink:href="#DejaVuSans-20" transform="translate(444.921875 0)"/>
      <use xlink:href="#DejaVuSans-31" transform="translate(476.708984 0)"/>
      <use xlink:href="#DejaVuSans-33" transform="translate(540.332031 0)"/>
      <use xlink:href="#DejaVuSans-30" transform="translate(603.955078 0)"/>
      <use xlink:href="#DejaVuSans-30" transform="translate(667.578125 0)"/>
     </g>
    </g>
   </g>
  </g>
 </g>
 <defs>
  <clipPath id="p0abc9c29ed">
   <rect x="46.965625" y="31.318125" width="370.33" height="354.16"/>
  </clipPath>
 </defs>
</svg>
