<svg xmlns="http://www.w3.org/2000/svg" viewBox="0 0 300 300" width="300" height="300" style="background-color:white; border:1px solid #ddd;"><circle cx="150" cy="150" r="100" stroke="stroke="black" stroke-width="2" fill="none"" stroke-width="2" fill="none"/><path d="M 250.0 150.0 A 100 100 0 0 1 200.0 236.60254037844385 L 250.0 150.0 Z" fill="brown" stroke="none" stroke-width="2"/><path d="M 200.0 236.60254037844385 A 100 100 0 0 1 100.00000000000003 236.60254037844388 L 200.0 236.60254037844385 Z" fill="brown" stroke="none" stroke-width="2"/><path d="M 100.00000000000003 236.60254037844388 A 100 100 0 0 1 50.0 150.0 L 100.00000000000003 236.60254037844388 Z" fill="brown" stroke="none" stroke-width="2"/><path d="M 50.0 150.0 A 100 100 0 0 1 99.99999999999996 63.39745962155615 L 50.0 150.0 Z" fill="brown" stroke="none" stroke-width="2"/><path d="M 99.99999999999996 63.39745962155615 A 100 100 0 0 1 200.0 63.39745962155614 L 99.99999999999996 63.39745962155615 Z" fill="brown" stroke="none" stroke-width="2"/><path d="M 200.0 63.39745962155614 A 100 100 0 0 1 250.0 149.99999999999997 L 200.0 63.39745962155614 Z" fill="brown" stroke="none" stroke-width="2"/><polygon points="250.0,150.0 200.0,236.60254037844385 100.00000000000003,236.60254037844388 50.0,150.0 99.99999999999996,63.39745962155615 200.0,63.39745962155614" fill="none" stroke="black"/><text x="150" y="150" font-family="Arial" font-size="12" fill="white" text-anchor="middle">Design Areas</text></svg>