<svg width="350" height="350" xmlns="http://www.w3.org/2000/svg">
    <!-- Styles -->
    <style>
        .axis { stroke: #333; stroke-width: 2; }
        .grid-line { stroke: #ccc; stroke-width: 1; }
        .text { font-family: Arial, sans-serif; font-size: 12px; fill: #333; }
        .flag-pole { stroke: #555; stroke-width: 2; }
        .green-flag { fill: #4CAF50; stroke: none; }
        .red-flag { fill: #F44336; stroke: none; }
        .blue-flag { fill: #2196F3; stroke: none; }
        .flag-path { fill-opacity: 0.8; }
    </style>

    <!-- Definitions for Axes -->
    <!-- X axis: 0 to 10. Mapped to 30 to 330 (30px per unit) -->
    <!-- Y axis: 0 to 100. Mapped to 320 to 20 (3px per unit) -->
    
    <!-- Grid and Lines (Vertical lines for runners) -->
    <line x1="30" y1="320" x2="330" y2="320" class="axis" /> <!-- X-axis -->
    <line x1="30" y1="320" x2="30" y2="20" class="axis" />  <!-- Y-axis -->
    
    <!-- Vertical Lines 1 to 10 -->
    <line x1="60" y1="320" x2="60" y2="20" class="grid-line" /> <!-- 1 -->
    <line x1="90" y1="320" x2="90" y2="20" class="grid-line" /> <!-- 2 (Niharika) -->
    <line x1="120" y1="320" x2="120" y2="20" class="grid-line" /> <!-- 3 -->
    <line x1="150" y1="320" x2="150" y2="20" class="grid-line" /> <!-- 4 -->
    <line x1="180" y1="320" x2="180" y2="20" class="grid-line" /> <!-- 5 (Rashmi) -->
    <line x1="210" y1="320" x2="210" y2="20" class="grid-line" /> <!-- 6 -->
    <line x1="240" y1="320" x2="240" y2="20" class="grid-line" /> <!-- 7 -->
    <line x1="270" y1="320" x2="270" y2="20" class="grid-line" /> <!-- 8 (Preet) -->
    <line x1="300" y1="320" x2="300" y2="20" class="grid-line" /> <!-- 9 -->
    <line x1="330" y1="320" x2="330" y2="20" class="grid-line" /> <!-- 10 -->

    <!-- Coordinate Mapping -->
    <!-- G(2, 25): x=90, y=320 - (25*3) = 320 - 75 = 245 -->
    <!-- R(8, 20): x=270, y=320 - (20*3) = 320 - 60 = 260 -->
    <!-- B(5, 22.5): x=180, y=320 - (22.5*3) = 320 - 67.5 = 252.5 -->
    
    <!-- Connect G and R -->
    <line x1="90" y1="245" x2="270" y2="260" stroke="#999" stroke-dasharray="5,5" stroke-width="2" />

    <!-- Green Flag at G -->
    <line x1="90" y1="320" x2="90" y2="245" class="flag-pole" />
    <path d="M 90,245 L 110,235 L 90,225 Z" class="green-flag flag-path" />
    <text x="75" y="240" class="text">G(2, 25)</text>

    <!-- Red Flag at R -->
    <line x1="270" y1="320" x2="270" y2="260" class="flag-pole" />
    <path d="M 270,260 L 290,250 L 270,240 Z" class="red-flag flag-path" />
    <text x="275" y="275" class="text">R(8, 20)</text>

    <!-- Blue Flag at B -->
    <line x1="180" y1="320" x2="180" y2="252.5" class="flag-pole" />
    <path d="M 180,252.5 L 200,242.5 L 180,232.5 Z" class="blue-flag flag-path" />
    <text x="185" y="230" class="text">B(5, 22.5)</text>

    <!-- Flower Pots Label on Y-axis -->
    <text x="10" y="20" class="text" transform="rotate(-90 10,20)">Flower Pots (AD)</text>
    <!-- Lines Label on X-axis -->
    <text x="150" y="340" class="text">Lines (AB)</text>
    
    <!-- X-axis Numbers -->
    <text x="90" y="335" class="text" text-anchor="middle">2</text>
    <text x="180" y="335" class="text" text-anchor="middle">5</text>
    <text x="270" y="335" class="text" text-anchor="middle">8</text>

</svg>