<svg width="500" height="400" xmlns="http://www.w3.org/2000/svg" style="background-color: white;">
  <!-- Circle (Center 250, 200, Radius 80) - Dark Grey -->
  <circle cx="250" cy="200" r="80" stroke="#333" stroke-width="2" fill="none" />
  <circle cx="250" cy="200" r="4" fill="#333" />
  <text x="260" y="205" font-family="serif" font-size="18" fill="black" font-weight="bold">O</text>

  <!-- Rhombus ABCD (Bright Blue) -->
  <!-- Calculated Coordinates: A(195, 120), B(366, 120), C(306, 280), D(135, 280) -->
  <polygon points="195,120 366,120 306,280 135,280" stroke="#1976D2" stroke-width="2.5" fill="none" />

  <!-- Radii to contact points (Green dashed - optional but adds color/context) -->
  <line x1="250" y1="200" x2="250" y2="120" stroke="#388E3C" stroke-width="1.5" stroke-dasharray="5,5" />
  <line x1="250" y1="200" x2="325" y2="229" stroke="#388E3C" stroke-width="1.5" stroke-dasharray="5,5" />
  <line x1="250" y1="200" x2="250" y2="280" stroke="#388E3C" stroke-width="1.5" stroke-dasharray="5,5" />
  <line x1="250" y1="200" x2="175" y2="171" stroke="#388E3C" stroke-width="1.5" stroke-dasharray="5,5" />

  <!-- Points of Contact (Red/Orange) -->
  <!-- P(250, 120) on AB -->
  <circle cx="250" cy="120" r="5" fill="#D32F2F" />
  <text x="250" y="110" font-family="serif" font-size="18" fill="#D32F2F" font-weight="bold" text-anchor="middle">P</text>

  <!-- Q(325, 229) on BC -->
  <circle cx="325" cy="229" r="5" fill="#D32F2F" />
  <text x="335" y="235" font-family="serif" font-size="18" fill="#D32F2F" font-weight="bold">Q</text>

  <!-- R(250, 280) on CD -->
  <circle cx="250" cy="280" r="5" fill="#D32F2F" />
  <text x="250" y="305" font-family="serif" font-size="18" fill="#D32F2F" font-weight="bold" text-anchor="middle">R</text>

  <!-- S(175, 171) on AD -->
  <circle cx="175" cy="171" r="5" fill="#D32F2F" />
  <text x="155" y="175" font-family="serif" font-size="18" fill="#D32F2F" font-weight="bold">S</text>

  <!-- Vertices Labels (Blue) -->
  <text x="185" y="115" font-family="serif" font-size="18" fill="#1976D2" font-weight="bold">A</text>
  <text x="375" y="115" font-family="serif" font-size="18" fill="#1976D2" font-weight="bold">B</text>
  <text x="315" y="295" font-family="serif" font-size="18" fill="#1976D2" font-weight="bold">C</text>
  <text x="120" y="295" font-family="serif" font-size="18" fill="#1976D2" font-weight="bold">D</text>

</svg>