<svg xmlns="http://www.w3.org/2000/svg" viewBox="0 0 400 350" width="400" height="350">
  <defs>
    <style>
      .label { font-family: 'Times New Roman', serif; font-size: 18px; font-weight: bold; }
    </style>
  </defs>

  <!-- Coordinates -->
  <!-- Center O at (200, 180) -->
  <!-- Radius R = 80 -->
  <!-- Calculated Vertices -->
  <!-- A(108, 245) -->
  <!-- B(265, 272) -->
  <!-- C(292, 115) -->
  <!-- D(135, 88) -->
  
  <!-- Calculated Contact Points -->
  <!-- P(186, 259) on AB -->
  <!-- Q(279, 194) on BC -->
  <!-- R(214, 101) on CD -->
  <!-- S(121, 166) on DA -->

  <!-- Circle -->
  <!-- Color: Blue #1976D2 -->
  <circle cx="200" cy="180" r="80" fill="none" stroke="#1976D2" stroke-width="2.5" />

  <!-- Quadrilateral Sides -->
  <!-- AB (Bottom) - Red -->
  <line x1="108" y1="245" x2="265" y2="272" stroke="#D32F2F" stroke-width="2.5" />
  
  <!-- BC (Right) - Green -->
  <line x1="265" y1="272" x2="292" y2="115" stroke="#388E3C" stroke-width="2.5" />
  
  <!-- CD (Top) - Orange -->
  <line x1="292" y1="115" x2="135" y2="88" stroke="#F57C00" stroke-width="2.5" />
  
  <!-- DA (Left) - Purple -->
  <line x1="135" y1="88" x2="108" y2="245" stroke="#7B1FA2" stroke-width="2.5" />

  <!-- Points (Vertices) -->
  <!-- A -->
  <circle cx="108" cy="245" r="3" fill="black" />
  <text x="90" y="260" class="label">A</text>
  
  <!-- B -->
  <circle cx="265" cy="272" r="3" fill="black" />
  <text x="280" y="285" class="label">B</text>
  
  <!-- C -->
  <circle cx="292" cy="115" r="3" fill="black" />
  <text x="300" y="110" class="label">C</text>
  
  <!-- D -->
  <circle cx="135" cy="88" r="3" fill="black" />
  <text x="120" y="80" class="label">D</text>

  <!-- Points (Contacts) -->
  <!-- P -->
  <circle cx="186" cy="259" r="4" fill="#1976D2" />
  <text x="180" y="280" class="label">P</text>
  
  <!-- Q -->
  <circle cx="279" cy="194" r="4" fill="#1976D2" />
  <text x="295" y="200" class="label">Q</text>
  
  <!-- R -->
  <circle cx="214" cy="101" r="4" fill="#1976D2" />
  <text x="210" y="95" class="label">R</text>
  
  <!-- S -->
  <circle cx="121" cy="166" r="4" fill="#1976D2" />
  <text x="100" y="170" class="label">S</text>

</svg>