<svg xmlns="http://www.w3.org/2000/svg" viewBox="0 0 300 300" width="300" height="300" style="background-color:white; border:1px solid #ddd;"><circle cx="150" cy="150" r="100" fill="none" stroke="black" stroke-width="1"/><line x1="150" y1="150" x2="233.5667914460651" y2="205.54057859407783" stroke="black"/><line x1="150" y1="150" x2="250.0" y2="150.0" stroke="black"/><line x1="150" y1="150" x2="189.46238525878204" y2="223.9616951380828" stroke="black"/><line x1="150" y1="150" x2="220.71067811865476" y2="220.71067811865476" stroke="black"/><line x1="150" y1="150" x2="155.94664231689538" y2="167.1862748194795" stroke="black"/><line x1="150" y1="150" x2="150.0" y2="250.0" stroke="black"/><line x1="150" y1="150" x2="183.1135584706383" y2="167.70410368330278" stroke="black"/><line x1="150" y1="150" x2="79.28932188134526" y2="220.71067811865476" stroke="black"/><line x1="150" y1="150" x2="189.1003522827609" y2="185.38369296936943" stroke="black"/><line x1="150" y1="150" x2="50.0" y2="150.0" stroke="black"/><line x1="150" y1="150" x2="169.24607536712568" y2="204.02140676888774" stroke="black"/><line x1="150" y1="150" x2="79.28932188134523" y2="79.28932188134526" stroke="black"/><line x1="150" y1="150" x2="212.26010807677892" y2="224.15778048924471" stroke="black"/><line x1="150" y1="150" x2="149.99999999999997" y2="50.0" stroke="black"/><line x1="150" y1="150" x2="219.4765220224877" y2="156.2828308889111" stroke="black"/><line x1="150" y1="150" x2="220.71067811865476" y2="79.28932188134523" stroke="black"/><text x="223.91036260090294" y="180.6146745892072" font-family="Arial" font-size="10" fill="black" text-anchor="middle">1</text><text x="180.6146745892072" y="223.91036260090294" font-family="Arial" font-size="10" fill="black" text-anchor="middle">2</text><text x="119.38532541079283" y="223.91036260090294" font-family="Arial" font-size="10" fill="black" text-anchor="middle">3</text><text x="76.08963739909706" y="180.6146745892072" font-family="Arial" font-size="10" fill="black" text-anchor="middle">4</text><text x="76.08963739909706" y="119.38532541079283" font-family="Arial" font-size="10" fill="black" text-anchor="middle">5</text><text x="119.38532541079283" y="76.08963739909706" font-family="Arial" font-size="10" fill="black" text-anchor="middle">6</text><text x="180.6146745892072" y="76.08963739909707" font-family="Arial" font-size="10" fill="black" text-anchor="middle">7</text><text x="223.91036260090294" y="119.38532541079283" font-family="Arial" font-size="10" fill="black" text-anchor="middle">8</text><polygon points="150,150 160,140 160,160" fill="red"/></svg>