<svg width="500" height="250" xmlns="http://www.w3.org/2000/svg">
    <!-- Styles -->
    <style>
        .main-line { stroke: #4682b4; stroke-width: 2.5; fill: none; stroke-linecap: round; stroke-linejoin: round; }
        .dashed-line { stroke: #4682b4; stroke-width: 2.5; fill: none; stroke-dasharray: 6,4; stroke-linecap: round; }
        .text { font-family: "Times New Roman", serif; font-size: 20px; font-weight: bold; fill: #4682b4; }
        .dot { fill: #4682b4; }
        .angle-arc { stroke: #4682B4; stroke-width: 2; fill: none; } /* SteelBlue color distinct from black lines */
    </style>

    <!-- Triangle ABC (Smaller) -->
    <!-- A(100, 50), B(60, 180), C(140, 180) -->
    <path d="M 100,50 L 60,180 L 140,180 Z" class="main-line"/>
    
    <!-- Triangle DEF (Larger) -->
    <!-- D(350, 20), E(250, 220), F(450, 220) -->
    <path d="M 350,20 L 250,220 L 450,220 Z" class="main-line"/>

    <!-- Points P and Q on DE and DF -->
    <!-- Line PQ (Dashed) -->
    <line x1="300" y1="120" x2="400" y2="120" class="dashed-line"/>
    
    <!-- Dots at P and Q -->
    <circle cx="300" cy="120" r="5" class="dot"/>
    <circle cx="400" cy="120" r="5" class="dot"/>

    <!-- Angle Arcs -->
    
    <!-- Angle B in ABC -->
    <!-- Vertex B(60, 180). Legs to A(100, 50) and C(140, 180). -->
    <!-- Vector BA: (40, -130). Vector BC: (80, 0). -->
    <!-- Arc start on BC: (75, 180). End on BA. -->
    <path d="M 75,180 A 15,15 0 0,0 66,168" class="angle-arc" stroke="#4682b4" fill="none"/>
    
    <!-- Angle C in ABC -->
    <!-- Vertex C(140, 180). Legs to A(100, 50) and B(60, 180). -->
    <!-- Vector CA: (-40, -130). Vector CB: (-80, 0). -->
    <!-- Arc start on CB: (125, 180). End on CA. -->
    <path d="M 125,180 A 15,15 0 0,0 134,168" class="angle-arc" stroke="#4682b4" fill="none"/>
    
    <!-- Angle P in DPQ -->
    <!-- Vertex P(300, 120). Legs PD, PQ. -->
    <path d="M 315,120 A 15,15 0 0,0 307,108" class="angle-arc" stroke="#4682b4" fill="none"/>
    
    <!-- Angle Q in DPQ -->
    <!-- Vertex Q(400, 120). Legs QD, QP. -->
    <path d="M 385,120 A 15,15 0 0,0 393,108" class="angle-arc" stroke="#4682b4" fill="none"/>
    
    <!-- Angle E in DEF -->
    <!-- Vertex E(250, 220). -->
    <path d="M 270,220 A 20,20 0 0,0 258,204" class="angle-arc" stroke="#4682b4" fill="none"/>

    <!-- Angle F in DEF -->
    <!-- Vertex F(450, 220). -->
    <path d="M 430,220 A 20,20 0 0,0 442,204" class="angle-arc" stroke="#4682b4" fill="none"/>

    <!-- Labels -->
    <text x="100" y="40" class="text" text-anchor="middle" fill="#4682b4">A</text>
    <text x="50" y="200" class="text" text-anchor="end" fill="#4682b4">B</text>
    <text x="150" y="200" class="text" text-anchor="start" fill="#4682b4">C</text>
    
    <text x="350" y="15" class="text" text-anchor="middle" fill="#4682b4">D</text>
    <text x="240" y="240" class="text" text-anchor="end" fill="#4682b4">E</text>
    <text x="460" y="240" class="text" text-anchor="start" fill="#4682b4">F</text>
    
    <text x="290" y="125" class="text" text-anchor="end" fill="#4682b4">P</text>
    <text x="410" y="125" class="text" text-anchor="start" fill="#4682b4">Q</text>


<style> text, tspan { fill: #4682b4 !important; } </style>




</svg>